<?xml version="1.0" encoding="utf-8"?>
<!-- Generator: Adobe Illustrator 23.0.1, SVG Export Plug-In . SVG Version: 6.00 Build 0)  -->
<svg version="1.1" id="Capa_1" xmlns="http://www.w3.org/2000/svg" xmlns:xlink="http://www.w3.org/1999/xlink" x="0px" y="0px"
	 viewBox="0 0 100 100" style="enable-background:new 0 0 100 100;" xml:space="preserve">
<style type="text/css">
	.st0{fill:none;stroke:#000000;stroke-linecap:round;stroke-linejoin:round;stroke-miterlimit:10;}
	.st1{fill:#FFFFFF;stroke:#000000;stroke-linecap:round;stroke-linejoin:round;stroke-miterlimit:10;}
	.st2{fill:#FEC478;}
	.st3{fill:#66E2E7;}
	.st4{fill:#00A2BB;}
	.st5{fill:#EFEFEF;}
	.st6{fill:#8CE0FF;}
	.st7{fill:#38AECE;}
	.st8{fill:#88DCE5;}
	.st9{fill:#009FBD;}
	.st10{fill:#F7EDC2;}
	.st11{fill:#FCAD81;}
	.st12{fill:#E2DBD5;}
	.st13{fill:#D9D1CC;}
	.st14{fill:#C4BCB7;}
	.st15{fill:#EFEBE8;}
</style>
<g>
	<g>
		<rect x="4.3" y="36.2" class="st0" width="91.4" height="1.4"/>
		<rect x="9.1" y="27.8" class="st1" width="1.4" height="65"/>
		<rect x="89.5" y="27.7" class="st1" width="1.4" height="65"/>
		<rect x="4.3" y="84.3" class="st0" width="91.4" height="1.4"/>
	</g>
	<g>
		<g>
			<path class="st2" d="M28,22.1h6.8v-1.2c0-0.4-0.3-0.7-0.7-0.7h-5.6c-0.4,0-0.7,0.3-0.7,0.7L28,22.1L28,22.1z"/>
			<polygon class="st3" points="34.8,22.1 28,22.1 27.5,23.3 26.5,25.4 36.4,25.4 			"/>
			<path class="st4" d="M31.4,29.6c1,0,1.9,0.8,1.9,1.9c0,1-0.8,1.9-1.9,1.9c-1,0-1.9-0.8-1.9-1.9C29.5,30.5,30.4,29.6,31.4,29.6
				L31.4,29.6z M34.5,28.8c0-0.5-0.4-0.8-0.8-0.8S33,28.3,33,28.8c0,0.5,0.4,0.8,0.8,0.8C34.2,29.7,34.5,29.3,34.5,28.8L34.5,28.8z
				 M31.4,26.9c0.5,0,0.8,0.4,0.8,0.8s-0.4,0.8-0.8,0.8c-0.4,0-0.8-0.4-0.8-0.8S31.1,26.9,31.4,26.9L31.4,26.9z M36.4,25.4h-9.9v9.4
				c0,0.4,0.3,0.7,0.7,0.7h8.7c0.4,0,0.7-0.3,0.7-0.7v-0.7L36.4,25.4L36.4,25.4z M29.2,27.9c-0.5,0-0.8,0.4-0.8,0.8
				c0,0.5,0.4,0.8,0.8,0.8c0.5,0,0.8-0.4,0.8-0.8C29.9,28.3,29.5,27.9,29.2,27.9z"/>
			<path d="M36.7,25.4L36.7,25.4L36.7,25.4L36.7,25.4C36.7,25.4,36.7,25.3,36.7,25.4C36.7,25.3,36.7,25.3,36.7,25.4
				C36.7,25.3,36.7,25.3,36.7,25.4L36.7,25.4L35.1,22v-1.2c0-0.5-0.4-0.9-0.9-0.9h-5.6c-0.5,0-0.9,0.4-0.9,0.9V22l-1.5,3.3l0,0l0,0
				l0,0l0,0l0,0l0,0l0,0l0,0v9.4c0,0.5,0.4,0.9,0.9,0.9h8.7c0.5,0,0.9-0.4,0.9-0.9V25.4L36.7,25.4z M28.3,20.9
				c0-0.2,0.1-0.3,0.3-0.3h5.6c0.2,0,0.3,0.1,0.3,0.3v0.9h-6.1V20.9z M27.7,23.6h1.9c0.2,0,0.3-0.1,0.3-0.3S29.7,23,29.5,23h-1.6
				l0.3-0.6h6.4l1.3,2.7h-9L27.7,23.6z M35.8,35.2h-8.7c-0.2,0-0.3-0.1-0.3-0.3v-9.1h9.3V34h-1.7c-0.2,0-0.3,0.1-0.3,0.3
				s0.1,0.3,0.3,0.3h1.7v0.3C36.1,35,36,35.2,35.8,35.2z"/>
			<path d="M30.5,23L30.5,23c-0.2,0-0.3,0.1-0.3,0.3s0.1,0.3,0.3,0.3l0,0c0.2,0,0.3-0.1,0.3-0.3S30.6,23,30.5,23z"/>
			<path d="M33.4,34L33.4,34c-0.2,0-0.3,0.1-0.3,0.3s0.1,0.3,0.3,0.3l0,0c0.2,0,0.3-0.1,0.3-0.3S33.6,34,33.4,34z"/>
		</g>
		<g>
			<path class="st2" d="M39.7,17.8h8.9v-1.7c0-0.5-0.4-0.8-0.8-0.8h-7.2c-0.5,0-0.8,0.4-0.8,0.8V17.8z"/>
			<polygon class="st3" points="48.6,17.8 39.7,17.8 39,19.4 37.7,22.1 50.8,22.1 			"/>
			<path class="st4" d="M44.2,27.7c1.4,0,2.5,1.1,2.5,2.5s-1.1,2.5-2.5,2.5s-2.5-1.1-2.5-2.5C41.7,28.8,42.8,27.7,44.2,27.7
				L44.2,27.7z M48.3,26.6c0-0.7-0.5-1.1-1-1.1c-0.6,0-1,0.5-1,1.1c0,0.7,0.5,1.1,1,1.1C47.8,27.7,48.3,27.3,48.3,26.6L48.3,26.6z
				 M44.2,24.1c0.6,0,1,0.5,1,1.1c0,0.7-0.5,1.1-1,1.1s-1-0.5-1-1.1C43.1,24.6,43.6,24.1,44.2,24.1L44.2,24.1z M50.8,22.1H37.7v12.4
				c0,0.5,0.4,0.8,0.8,0.8H50c0.5,0,0.8-0.4,0.8-0.8v-0.8L50.8,22.1L50.8,22.1z M41.1,25.5c-0.6,0-1,0.5-1,1.1c0,0.7,0.5,1.1,1,1.1
				s1-0.5,1-1.1C42.2,26,41.7,25.5,41.1,25.5z"/>
			<path d="M51.1,22.1L51.1,22.1L51.1,22.1L51.1,22.1C51.1,22,51.1,22,51.1,22.1L51.1,22.1L51.1,22.1L51.1,22.1l-2.1-4.4v-1.6
				c0-0.7-0.6-1.2-1.2-1.2h-7.3c-0.7,0-1.2,0.6-1.2,1.2v1.6l-2,4.3l0,0l0,0l0,0l0,0l0,0l0,0l0,0l0,0v12.4c0,0.7,0.6,1.2,1.2,1.2
				h11.5c0.7,0,1.2-0.6,1.2-1.2L51.1,22.1L51.1,22.1z M40.1,16.1c0-0.2,0.2-0.4,0.4-0.4h7.3c0.2,0,0.4,0.2,0.4,0.4v1.2H40L40.1,16.1
				L40.1,16.1z M39.3,19.7h2.5c0.2,0,0.4-0.2,0.4-0.4S41.9,19,41.7,19h-2.1l0.4-0.8h8.4l1.7,3.6H38.3L39.3,19.7z M49.9,35H38.5
				c-0.2,0-0.4-0.2-0.4-0.4V22.6h12.3v10.8h-2.3c-0.2,0-0.4,0.2-0.4,0.4s0.2,0.4,0.4,0.4h2.3v0.4C50.3,34.8,50.2,35,49.9,35z"/>
			<path d="M42.8,19L42.8,19c-0.3,0-0.4,0.2-0.4,0.4s0.2,0.4,0.4,0.4l0,0c0.2,0,0.4-0.2,0.4-0.4S43.1,19,42.8,19z"/>
			<path d="M46.8,33.3L46.8,33.3c-0.3,0-0.4,0.2-0.4,0.4s0.2,0.4,0.4,0.4l0,0c0.2,0,0.4-0.2,0.4-0.4C47.3,33.5,47.1,33.3,46.8,33.3z
				"/>
		</g>
		<g>
			<rect x="55.7" y="7.8" class="st2" width="4" height="2.5"/>
			<path class="st5" d="M52.4,35.4V23.6c0-1.1,0.1-2.3,0.4-3.4C53,19.1,53.4,18,54,17c1-2,1.6-4.2,1.6-6.5V9.9h4v0.6
				c0,1.1,0.1,2.3,0.4,3.4c0.3,1.1,0.7,2.2,1.2,3.1c1,2.1,1.6,4.3,1.6,6.6v11.7L52.4,35.4L52.4,35.4z M60.6,33.1v-9.5
				c0-1.9-0.5-3.9-1.4-5.6c-0.2-0.3-0.3-0.6-0.5-0.8h-2.4c-0.1,0.3-0.3,0.6-0.5,0.8c-0.9,1.7-1.4,3.7-1.4,5.6v9.5H60.6L60.6,33.1z"
				/>
			<path class="st6" d="M54.4,33.3v-9.7c0-2,0.5-4,1.4-5.7c0.2-0.3,0.3-0.6,0.5-0.9v-0.1H59V17c0.2,0.3,0.3,0.7,0.5,0.9
				c0.9,1.7,1.4,3.7,1.4,5.7v9.7H54.4L54.4,33.3z"/>
			<path d="M60,7.9c0-0.4-0.3-0.6-0.6-0.6h-3.7c-0.3,0-0.6,0.3-0.6,0.6v2.6c0,2.2-0.6,4.3-1.6,6.3c-0.6,1-0.9,2.2-1.2,3.3
				c-0.3,1.1-0.5,2.4-0.5,3.5v11.6c0,0.3,0.3,0.6,0.6,0.6h10.2c0.3,0,0.6-0.3,0.6-0.6V23.6c0-2.4-0.6-4.7-1.7-6.8
				c-0.5-0.9-0.9-2-1.1-3c-0.3-1-0.4-2.2-0.4-3.2L60,7.9L60,7.9z M59.3,8.4v1.1h-3.6V8.4H59.3z M61,17c1.1,2.1,1.8,4.3,1.8,6.7v11.7
				H52.5V23.7c0-1.1,0.2-2.3,0.5-3.4c0.3-1.1,0.8-2.2,1.3-3.2c1.2-2.2,1.6-4.6,1.6-7.1h3.6c0,1.2,0.2,2.5,0.5,3.6
				C60.1,14.7,60.4,16,61,17z"/>
			<path d="M58.9,16.5h-2.5c-0.2,0-0.4,0.1-0.5,0.4c-0.1,0.3-0.3,0.7-0.5,0.9c-0.9,1.8-1.4,3.9-1.4,5.8v9.6c0,0.3,0.3,0.6,0.6,0.6
				h6.1c0.3,0,0.6-0.3,0.6-0.6v-9.7c0-2.1-0.5-4.1-1.4-5.8c-0.2-0.3-0.3-0.6-0.5-0.9C59.2,16.6,59,16.5,58.9,16.5z M60.7,23.5v9.6
				h-6.4v-9.6c0-2,0.6-4,1.7-5.7c0.1-0.2,0.3-0.5,0.4-0.7h2.2c0.1,0.2,0.3,0.5,0.4,0.7C60.2,19.5,60.7,21.5,60.7,23.5z"/>
			<path d="M59,28.7c-0.2,0-0.4,0.2-0.4,0.4v2.3c0,0.2,0.2,0.4,0.4,0.4s0.4-0.2,0.4-0.4v-2.3C59.4,28.9,59.2,28.7,59,28.7z"/>
			<path d="M59,28.4c0.5,0,0.5-0.8,0-0.8C58.7,27.7,58.7,28.4,59,28.4z"/>
		</g>
		<g>
			<rect x="67.5" y="12.8" class="st2" width="3.2" height="2"/>
			<path class="st5" d="M64.9,35.4v-9.6c0-0.9,0.1-1.9,0.4-2.8c0.2-0.9,0.6-1.8,1-2.6c0.8-1.6,1.3-3.5,1.3-5.4v-0.5h3.2v0.5
				c0,0.9,0.1,1.9,0.4,2.7c0.2,0.9,0.6,1.8,0.9,2.5c0.8,1.7,1.3,3.6,1.3,5.5v9.6L64.9,35.4L64.9,35.4z M71.6,33.6v-7.8
				c0-1.6-0.4-3.2-1.1-4.6c-0.1-0.2-0.3-0.5-0.4-0.8h-1.9c-0.1,0.3-0.2,0.5-0.4,0.8c-0.8,1.4-1.1,3-1.1,4.6v7.8H71.6L71.6,33.6z"/>
			<path class="st7" d="M66.6,33.8v-8c0-1.6,0.4-3.2,1.1-4.6c0.1-0.3,0.3-0.5,0.4-0.8v-0.1h2.2v0.1c0.1,0.3,0.3,0.6,0.4,0.8
				c0.8,1.4,1.1,3,1.1,4.6v8H66.6L66.6,33.8z"/>
			<path d="M71.1,12.9c0-0.3-0.2-0.5-0.5-0.5h-3c-0.3,0-0.5,0.2-0.5,0.5V15c0,1.8-0.5,3.6-1.3,5.2c-0.5,0.8-0.8,1.8-1,2.7
				c-0.2,0.9-0.4,1.9-0.4,2.9v9.5c0,0.3,0.2,0.5,0.5,0.5h8.4c0.3,0,0.5-0.2,0.5-0.5v-9.6c0-2-0.5-3.9-1.4-5.6
				c-0.4-0.8-0.8-1.6-0.9-2.5c-0.2-0.8-0.3-1.8-0.3-2.6V12.9L71.1,12.9z M70.6,13.2v0.9h-2.9v-0.9H70.6z M72,20.4
				c0.9,1.7,1.5,3.6,1.5,5.5v9.6h-8.6v-9.6c0-0.9,0.1-1.9,0.4-2.8c0.3-0.9,0.7-1.8,1.1-2.6c1-1.8,1.3-3.8,1.3-5.8h2.9
				c0,1,0.2,2,0.4,2.9C71.3,18.5,71.5,19.5,72,20.4z"/>
			<path d="M70.2,19.9h-2c-0.2,0-0.4,0.1-0.4,0.3c-0.1,0.3-0.3,0.5-0.4,0.8c-0.8,1.5-1.2,3.1-1.2,4.8v7.9c0,0.3,0.2,0.5,0.5,0.5h5
				c0.3,0,0.5-0.2,0.5-0.5v-7.9c0-1.7-0.4-3.4-1.2-4.8c-0.1-0.3-0.3-0.5-0.4-0.8C70.6,20,70.4,19.9,70.2,19.9z M71.8,25.7v7.8h-5.3
				v-7.8c0-1.6,0.5-3.2,1.4-4.6c0.1-0.2,0.2-0.4,0.4-0.6h1.8c0.1,0.2,0.2,0.4,0.4,0.6C71.3,22.5,71.8,24.1,71.8,25.7z"/>
			<path d="M70.4,29.6c-0.2,0-0.3,0.2-0.3,0.3V32c0,0.2,0.2,0.3,0.3,0.3c0.2,0,0.3-0.2,0.3-0.3v-2.1C70.7,29.8,70.6,29.6,70.4,29.6z
				"/>
			<path d="M70.4,29.3c0.4,0,0.4-0.7,0-0.7C70,28.7,70,29.3,70.4,29.3z"/>
		</g>
	</g>
	<g>
		<g>
			<g>
				<polygon class="st8" points="37.8,60 20.3,60 19.9,57.9 38.2,57.9 				"/>
				<polygon class="st8" points="20.3,81.2 37.8,81.2 38.2,83.4 19.9,83.4 				"/>
			</g>
			<path class="st9" d="M20.3,81.2L20.3,81.2h17.4l0,0c0.2-1,0.4-2.5,0.6-3.6H19.8C19.9,78.7,20.1,80.3,20.3,81.2z"/>
			<path class="st10" d="M38.3,63.6H19.8c-0.7,4.7-0.7,9.4,0,14.1h18.6C39.1,73,39.1,68.3,38.3,63.6z"/>
			<path class="st9" d="M37.8,60L37.8,60H20.3l0,0c-0.2,1-0.4,2.5-0.6,3.6h18.6C38.2,62.5,38,61,37.8,60z"/>
			<path class="st11" d="M26.9,74.7c0.7,0,1.3-0.4,1.7-0.8c0.3-0.3,0.8-0.3,1,0c0.4,0.4,0.9,0.8,1.7,0.8c1.2,0,2.3-1,2.4-2.3
				c0-0.7-0.2-1.2-0.5-1.7s-1.3-1.5-2.3-2.5c-0.9-0.9-2.5-0.9-3.5,0c-0.9,0.9-2,2-2.3,2.5c-0.5,0.4-0.7,0.9-0.7,1.6
				C24.6,73.7,25.7,74.7,26.9,74.7"/>
			<path d="M31.2,75.4c-0.8,0-1.5-0.4-2.2-0.9c0,0,0,0-0.1,0c-0.7,0.7-1.4,0.9-2.2,0.9c-1.6,0-2.9-1.3-3-2.9c-0.1-1,0.3-1.7,0.7-2.2
				c0.1-0.2,0.5-0.7,2.4-2.5c0.6-0.6,1.4-0.9,2.3-0.9l0,0c0.8,0,1.6,0.3,2.3,0.9c1.9,1.9,2.3,2.4,2.4,2.5c0.3,0.5,0.7,1.1,0.7,2.2
				C34.3,74,32.8,75.4,31.2,75.4z M29.1,73c0.4,0,0.8,0.1,1,0.4c0.3,0.3,0.8,0.6,1.2,0.6c0.8,0,1.6-0.8,1.6-1.6
				c0-0.5-0.1-0.8-0.4-1.3c-0.1-0.2-0.6-0.8-2.2-2.4c-0.7-0.7-1.8-0.7-2.5,0c-1.6,1.5-2.1,2.1-2.2,2.3c-0.3,0.5-0.4,0.8-0.4,1.3
				c0.1,0.8,0.8,1.6,1.6,1.6c0.5,0,0.9-0.3,1.2-0.6C28.4,73.1,28.7,73,29.1,73z"/>
			<path d="M35.4,62.3L35.4,62.3h-0.2c0,0-0.1,0-0.1-0.1c0,0-0.1,0-0.1-0.1c0,0,0-0.1-0.1-0.1c0,0,0-0.1-0.1-0.1v-0.1v-0.1v-0.1
				v-0.1c0,0,0-0.1,0.1-0.1c0,0,0-0.1,0.1-0.1c0,0,0.1,0,0.1-0.1h0.1h0.1c0.1,0,0.1,0,0.2,0h0.1h0.1c0,0,0.1,0,0.1,0.1
				c0,0,0,0.1,0.1,0.1c0,0,0,0.1,0.1,0.1v0.1v0.1v0.1V62c0,0,0,0.1-0.1,0.1c0,0,0,0.1-0.1,0.1c0,0-0.1,0-0.1,0.1c0,0-0.1,0-0.1,0.1
				H35.4C35.5,62.3,35.5,62.3,35.4,62.3z"/>
			<path d="M22.8,80L22.8,80h-0.2c0,0-0.1,0-0.1-0.1c0,0-0.1,0-0.1-0.1c0,0,0-0.1-0.1-0.1c0,0,0-0.1-0.1-0.1v-0.1v-0.1v-0.1v-0.1
				c0,0,0-0.1,0.1-0.1c0,0,0-0.1,0.1-0.1c0,0,0.1,0,0.1-0.1c0,0,0.1,0,0.1-0.1h0.1c0.1,0,0.1,0,0.2,0h0.1c0,0,0.1,0,0.1,0.1
				c0,0,0.1,0,0.1,0.1c0,0,0,0.1,0.1,0.1c0,0,0,0.1,0.1,0.1v0.1v0.1c0,0.1-0.1,0.3-0.2,0.4c0,0-0.1,0-0.1,0.1c0,0-0.1,0-0.1,0.1
				L22.8,80C22.9,80,22.8,80,22.8,80z"/>
			<path d="M38.9,77.7c0.7-4.7,0.7-9.5,0-14.2c0-0.3-0.1-0.6-0.1-0.9c-0.1-0.8-0.3-1.8-0.4-2.5l0.4-2c0-0.2,0-0.3-0.1-0.5
				c-0.1-0.1-0.3-0.2-0.4-0.2H19.9c-0.2,0-0.3,0.1-0.4,0.2c-0.1,0.1-0.1,0.3-0.1,0.5l0.4,2c-0.2,0.8-0.3,1.7-0.4,2.5
				c0,0.3-0.1,0.7-0.1,0.9c-0.7,4.7-0.7,9.5,0,14.2c0,0.3,0.1,0.6,0.1,0.9c0.1,0.8,0.3,1.8,0.4,2.5l-0.4,2c0,0.2,0,0.3,0.1,0.5
				c0.1,0.1,0.3,0.2,0.4,0.2h18.3c0.2,0,0.3-0.1,0.4-0.2s0.1-0.3,0.1-0.5l-0.4-2c0.2-0.8,0.3-1.7,0.4-2.5
				C38.8,78.4,38.8,78,38.9,77.7z M20.3,64h17.6c0.6,4.3,0.6,8.8,0,13.1H20.3C19.7,72.8,19.7,68.4,20.3,64z M37.7,62.7
				c0,0.1,0,0.2,0,0.3H20.4c0-0.1,0-0.2,0-0.3c0-0.1,0-0.3,0.1-0.4h13.1c0.3,0,0.5-0.2,0.5-0.5c0-0.3-0.2-0.5-0.5-0.5H20.7
				c0-0.3,0.1-0.6,0.1-0.8h16.6C37.6,61.2,37.7,62,37.7,62.7z M20.5,78.6c0-0.1,0-0.2,0-0.3h17.3c0,0.1,0,0.2,0,0.3s0,0.3-0.1,0.4
				H24.5c-0.3,0-0.5,0.2-0.5,0.5c0,0.3,0.2,0.5,0.5,0.5h12.9c0,0.3-0.1,0.6-0.1,0.8H20.8C20.7,80.1,20.6,79.2,20.5,78.6z M37.7,58.4
				l-0.2,1.1H20.8l-0.2-1.1H37.7z M20.6,82.8l0.2-1h16.6l0.2,1.1L20.6,82.8L20.6,82.8z"/>
		</g>
		<g id="Pig_Food_1_">
			<g id="Filled_1_">
				<path class="st12" d="M74.6,46.9l-1.8-0.9L71,46.9l-1.8-0.9l-1.8,0.9l-1.8-0.9l-1.8,0.9l-1.8-0.9l-1.8,0.9l-1.8-0.9l-1.8,0.9
					l-1.8-0.9v3L52,52.5c-0.9,1.2-1.4,2.7-1.4,4.2v15.3c0,1.4,0.5,2.8,1.2,4l2.9,4.2v3l1.8-0.9l1.8,0.9l1.8-0.9l1.8,0.9l1.8-0.9
					l1.8,0.9l1.8-0.9l1.8,0.9l1.8-0.9l1.8,0.9l1.8-0.9l1.8,0.9V46L74.6,46.9z"/>
				<path class="st13" d="M56.5,82.4l1.8,0.9l1.8-0.9l1.8,0.9l1.8-0.9l1.8,0.9l1.8-0.9l1.8,0.9l1.8-0.9l1.8,0.9l1.8-0.9l1.8,0.9
					V60.8c-4.3,8.7-13.4,14.6-23.8,14.6c-0.3,0-0.7,0-0.9,0c0.1,0.2,0.3,0.4,0.4,0.6l2.9,4.2v3L56.5,82.4z"/>
				<path class="st13" d="M73.4,76l2.9,4.2l2.9-4.2c0.8-1.1,1.2-2.5,1.2-4V56.8c0-1.5-0.5-3-1.4-4.2l-2.6-3.5l-2.7,3.5
					c-0.9,1.2-1.4,2.7-1.4,4.2v15.3C72.2,73.5,72.6,74.9,73.4,76z"/>
				<path class="st14" d="M73.7,52.5c-0.9,1.2-1.4,2.7-1.4,4.2v15.3c0,1.4,0.5,2.8,1.2,4l2.9,4.2V49.1L73.7,52.5z"/>
				<circle class="st15" cx="56.9" cy="51.5" r="2"/>
				<circle class="st15" cx="60.7" cy="53.9" r="1.1"/>
			</g>
			<g id="Outline_1_">
				<path d="M79.6,52.2L77,48.8c-0.1-2.5,0.2-3-0.3-3.3c-0.5-0.3-0.8,0.2-2.1,0.8l-1.5-0.8c-0.5-0.2-0.7,0.2-2.1,0.8
					c-1.4-0.7-1.6-1-2.1-0.8l-1.5,0.8c-1.4-0.7-1.6-1-2.1-0.8l-1.5,0.8l-1.6-0.8c-0.5-0.2-0.8,0.2-2.1,0.8c-1.4-0.7-1.6-1-2.1-0.8
					l-1.5,0.8l-1.5-0.8c-0.3-0.2-0.7,0-0.8,0.3c0,0.1-0.1,0.2-0.1,0.3v2.8l-2.6,3.4c-1,1.3-1.6,2.9-1.6,4.6v15.3
					c0,3.6,2.4,5.3,4.2,8.4c0.1,2.6-0.2,3,0.3,3.3c0.2,0.1,0.4,0.1,0.6,0l1.5-0.8c1.4,0.7,1.6,1,2.1,0.8l1.5-0.8
					c1.4,0.7,1.6,1,2.1,0.8l1.5-0.8c1.4,0.7,1.6,1,2.1,0.8l1.5-0.8l1.5,0.8c0.2,0.1,0.4,0.1,0.6,0l1.5-0.8l1.5,0.8
					c0.5,0.2,0.7-0.2,2.1-0.8c1.5,0.8,1.7,0.9,2.1,0.8c0.5-0.3,0.2-0.8,0.3-3.3l2.8-4.1c0.8-1.2,1.3-2.7,1.3-4.3V61.6
					c0-0.4-0.3-0.6-0.6-0.6s-0.6,0.3-0.6,0.6v10.5c0,3-1.9,4.3-3.6,7.2c-1.7-2.8-3.6-4.1-3.6-7.2V56.8c0-3.2,2.2-4.6,3.6-6.8
					c1.4,2.2,3.6,3.7,3.6,6.8l0,0c0,0.4,0.3,0.6,0.6,0.6s0.6-0.3,0.6-0.6C81.2,55.2,80.6,53.5,79.6,52.2z M75.7,82.3
					c-0.8-0.3-1-0.7-1.5-0.5l-1.5,0.8c-1.4-0.7-1.6-1-2.1-0.8l-1.5,0.8c-1.4-0.7-1.6-1-2.1-0.8l-1.5,0.8c-1.4-0.7-1.6-1-2.1-0.8
					L62,82.6c-1.4-0.7-1.6-1-2.1-0.8l-1.5,0.8l-1.5-0.8c-0.5-0.2-0.8,0.2-1.5,0.5v-1.4h20.5L75.7,82.3L75.7,82.3z M72.8,52.6
					c-0.1,0,0.6,0-15.1,0c-0.4,0-0.6,0.3-0.6,0.6c0,0.4,0.3,0.6,0.6,0.6h14.4c-1,2.5-0.5,3.3-0.7,18.3c0,1.1,0.3,2.4,0.8,3.4H57.7
					c-0.4,0-0.6,0.3-0.6,0.6c0,0.3,0.3,0.6,0.6,0.6h15.4l2.1,3H55.1l-2.1-3h2.4c0.4,0,0.6-0.3,0.6-0.6c0-0.3-0.3-0.6-0.6-0.6h-3.2
					c-0.7-1-0.9-2.2-0.9-3.4V56.8c0-1.4,0.5-2.7,1.3-3.9l2.5-3.3h20.1C73.1,52.3,73.1,52.2,72.8,52.6z M75.7,48.4H55.4V47
					c0.8,0.3,1,0.7,1.5,0.5l1.5-0.8c1.4,0.7,1.6,1,2.1,0.8l1.5-0.8c1.4,0.7,1.6,1,2.1,0.8l1.5-0.8c1.4,0.7,1.6,1,2.1,0.8l1.5-0.8
					c1.4,0.7,1.6,1,2.1,0.8l1.5-0.8c1.4,0.7,1.6,1,2.1,0.8l0.9-0.5L75.7,48.4L75.7,48.4z"/>
				<circle cx="60.2" cy="65.3" r="0.6"/>
				<circle cx="55.4" cy="53.2" r="0.6"/>
				<circle cx="80.5" cy="59.2" r="0.6"/>
				<circle cx="62.5" cy="65.3" r="0.6"/>
			</g>
		</g>
	</g>
</g>
</svg>
