<?xml version="1.0" encoding="utf-8"?>
<!-- Generator: Adobe Illustrator 23.0.1, SVG Export Plug-In . SVG Version: 6.00 Build 0)  -->
<svg version="1.1" id="Capa_1" xmlns="http://www.w3.org/2000/svg" xmlns:xlink="http://www.w3.org/1999/xlink" x="0px" y="0px"
	 viewBox="0 0 100 100" style="enable-background:new 0 0 100 100;" xml:space="preserve">
<style type="text/css">
	.st0{fill:#FD9727;}
	.st1{fill:#E57F23;}
	.st2{fill:#4A4256;}
	.st3{fill:#77D057;}
	.st4{fill:#68B543;}
	.st5{fill:#602952;}
	.st6{fill:#306318;}
	.st7{fill:#2C5114;}
	.st8{fill:#E9EAEB;}
	.st9{fill:#BFD8CE;}
	.st10{fill:#512047;}
	.st11{fill:#FC502A;}
	.st12{fill:#E60D28;}
	.st13{fill:#CDEAE0;}
	.st14{fill:#352F3F;}
	.st15{fill:#DC9265;}
	.st16{fill:#BC8D5D;}
	.st17{fill:#A1764A;}
	.st18{fill:#AD693D;}
	.st19{fill:#EB352F;}
	.st20{fill:#C7161F;}
	.st21{fill:#E6E6E6;}
	.st22{fill:#CCCCCC;}
	.st23{fill:#3EA7FF;}
	.st24{fill:#2B7CD4;}
</style>
<g>
	<g>
		<path class="st0" d="M49.7,45.2c0,0,0.5-0.5,0.5-2.8c0-3.3-1.2-5.7-1.2-5.7h-4.2c0,0-1.2,2.4-1.2,5.7c0,2.3,0.5,2.8,0.5,2.8
			l-3.8,3c-0.6,0.5-1,1.2-1,2v23.4c0,0.8,0.7,1.5,1.5,1.5h12.1c0.8,0,1.5-0.7,1.5-1.5V50.2c0-0.8-0.4-1.5-1-2L49.7,45.2z"/>
		<path class="st1" d="M53.4,48.2l-3.8-3c0,0,0.5-0.5,0.5-2.8c0-3.3-1.2-5.7-1.2-5.7h-3.2c-0.1,1.8-0.3,3.9-0.4,5.7
			c-0.2,2.2,0.8,4.4,2.5,5.8l0,0c0.6,0.5,1,1.2,1,2v23.4c0,0.8-0.7,1.5-1.5,1.5h5.5c0.8,0,1.5-0.7,1.5-1.5V50.2
			C54.4,49.4,54,48.7,53.4,48.2z"/>
		<g>
			<rect x="39.3" y="51.7" class="st2" width="15.1" height="20.2"/>
			<path class="st2" d="M50.2,42.2c-0.1-3.2-1.2-5.5-1.2-5.5h-4.2c0,0-1.2,2.3-1.2,5.5H50.2z"/>
		</g>
		<path class="st3" d="M26,45.7v-5h-3.8v5c0,1.6-1.2,2.9-2.7,3.1l0,0c-1.6,0.2-2.8,1.5-2.8,3.1v21.9c0,0.8,0.6,1.4,1.4,1.4h12
			c0.8,0,1.4-0.6,1.4-1.4V51.9c0-1.6-1.2-2.9-2.8-3.1l0,0C27.1,48.6,26,47.2,26,45.7z"/>
		<path class="st4" d="M28.7,48.7L28.7,48.7c-1.5-0.2-2.7-1.5-2.7-3.1v-5h-2.7v33.1c0,0.8-0.6,1.4-1.4,1.4H30c0.8,0,1.4-0.6,1.4-1.4
			V51.9C31.4,50.3,30.2,48.9,28.7,48.7z"/>
		<path class="st5" d="M26.1,45.3H22c-0.2,0-0.4-0.2-0.4-0.4v-3.8c0-0.2,0.2-0.4,0.4-0.4h4.1c0.2,0,0.4,0.2,0.4,0.4v3.8
			C26.5,45.1,26.3,45.3,26.1,45.3z"/>
		<path class="st6" d="M19.4,48.7L19.4,48.7c-1.6,0.2-2.8,1.5-2.8,3.1v21.9c0,0.8,0.6,1.4,1.4,1.4h12c0.8,0,1.4-0.6,1.4-1.4V51.9
			c0-1.6-1.2-2.9-2.8-3.1l0,0C28.2,48.7,19.8,48.7,19.4,48.7z"/>
		<path class="st7" d="M31.3,51c-0.1-0.2-0.1-0.4-0.2-0.5c0-0.1-0.1-0.2-0.1-0.2c-0.4-0.6-0.9-1.1-1.6-1.3c-0.2-0.1-0.4-0.1-0.7-0.2
			l0,0c-0.2,0-3,0-5.4,0v25c0,0.8-0.6,1.4-1.4,1.4H30c0.3,0,0.6-0.1,0.9-0.3c0.2-0.2,0.4-0.5,0.5-0.8c0-0.1,0-0.2,0-0.3V51.9
			C31.4,51.6,31.4,51.3,31.3,51z"/>
		<path class="st8" d="M29.3,68.9V53.5c0-0.5-0.4-1-1-1h-8.6c-0.5,0-1,0.4-1,1v15.4c0,0.4,0.3,0.7,0.7,0.7h9.1
			C29,69.7,29.3,69.3,29.3,68.9z"/>
		<path class="st9" d="M23.3,69.7h5.3c0.4,0,0.7-0.3,0.7-0.7V53.5c0-0.5-0.4-1-1-1h-5V69.7L23.3,69.7z"/>
		<circle class="st5" cx="24" cy="57.2" r="2.6"/>
		<path class="st10" d="M23.3,59.6c0.2,0.1,0.5,0.1,0.8,0.1c1.4,0,2.6-1.1,2.6-2.6c0-1.4-1.1-2.6-2.6-2.6c-0.3,0-0.5,0-0.8,0.1V59.6
			z"/>
		<rect x="18.8" y="61.8" class="st11" width="10.5" height="2.7"/>
		<rect x="23.3" y="61.8" class="st12" width="6" height="2.7"/>
		<path class="st13" d="M41.6,71.1c-0.2-0.2-0.4-0.5-0.4-0.8L41.7,42c0-0.4-0.1-0.9-0.4-1.2l-2.9-3c-0.4-0.4-0.7-1-0.7-1.6V24.9
			h-2.5h-2.5v11.3c0,0.6-0.2,1.2-0.7,1.6l-2.9,3c-0.3,0.3-0.5,0.7-0.4,1.2l0.5,28.3c0,0.3-0.1,0.6-0.4,0.8c-0.2,0.1-0.3,0.3-0.3,0.6
			l0.1,2.4c0,0.6,0.5,1.1,1.1,1.1h5.5h5.5c0.6,0,1.1-0.5,1.1-1.1l0.1-2.4C41.9,71.4,41.8,71.2,41.6,71.1z"/>
		<path class="st9" d="M41.6,71.1c-0.2-0.2-0.4-0.5-0.4-0.8L41.7,42c0-0.4-0.1-0.9-0.4-1.2l-2.9-3c-0.4-0.4-0.7-1-0.7-1.6V24.9h-2.5
			h-2.5v11c0,0.2,0.1,0.4,0.2,0.5l3,4.4c0.3,0.3,0.5,0.7,0.4,1.2l-0.5,28.3c0,0.3,0.1,0.6,0.4,0.8c0.2,0.1,0.3,0.3,0.3,0.6l-0.1,2.4
			c0,0.6-0.5,1.1-1.1,1.1h5.4c0.6,0,1.1-0.5,1.1-1.1l0.1-2.4C41.9,71.4,41.8,71.2,41.6,71.1z"/>
		<path class="st12" d="M37.6,34.6h-4.7c-0.2,0-0.4-0.2-0.4-0.4v-8.9c0-0.2,0.2-0.4,0.4-0.4h4.7c0.2,0,0.4,0.2,0.4,0.4v8.9
			C38,34.4,37.8,34.6,37.6,34.6z"/>
		<g>
			<path class="st11" d="M31.8,47.3c2.2-1.5,4.7-1.5,6.9,0c0.2,0.1,0.5,0,0.5-0.3l0.1-1.4c0-0.5-0.3-1-0.7-1.2
				c-2.1-0.9-4.4-0.9-6.6,0c-0.5,0.2-0.8,0.7-0.7,1.2l0.1,1.4C31.3,47.3,31.6,47.4,31.8,47.3z"/>
			<path class="st11" d="M38.1,56.7h-5.8c-0.3,0-0.5-0.2-0.5-0.5l-0.1-4.5c0-0.3,0.2-0.5,0.5-0.5h5.9c0.3,0,0.5,0.2,0.5,0.5
				l-0.1,4.5C38.6,56.5,38.4,56.7,38.1,56.7z"/>
		</g>
		<rect x="48.9" y="51.7" class="st14" width="5.5" height="20.2"/>
		<g>
			<path class="st8" d="M50.3,57.4c-2.3-1-4.5-1-6.9,0c-0.3,0.1-0.6,0-0.7-0.2c-0.2-0.3-0.4-0.6-0.6-1c-0.2-0.3-0.1-0.7,0.3-0.8
				c3-1.4,6-1.4,9,0c0.3,0.1,0.4,0.5,0.3,0.8c-0.2,0.3-0.4,0.6-0.6,1C50.8,57.4,50.5,57.5,50.3,57.4z"/>
			<ellipse class="st8" cx="46.8" cy="62.4" rx="3.8" ry="2.6"/>
		</g>
		<g>
			<path class="st9" d="M48.9,60.2v4.4c1-0.5,1.7-1.3,1.7-2.2C50.6,61.5,49.9,60.7,48.9,60.2z"/>
			<path class="st9" d="M51.3,55.3c-0.8-0.4-1.6-0.6-2.4-0.8v2.4c0.5,0.1,0.9,0.3,1.4,0.5c0.3,0.1,0.6,0,0.7-0.2
				c0.2-0.3,0.4-0.6,0.6-1C51.8,55.9,51.6,55.5,51.3,55.3z"/>
		</g>
		<path class="st14" d="M50.2,42.2c0-2.9-1-5-1.2-5.4c0,0,0,0,0,0c0,0,0,0,0,0c0,0,0,0,0,0h-3.2c-0.1,1.7-0.2,3.7-0.4,5.5H50.2z"/>
		<path class="st2" d="M49.4,37.4h-5.1c-0.2,0-0.4-0.2-0.4-0.4v-4.4c0-0.2,0.2-0.4,0.4-0.4h5.1c0.2,0,0.4,0.2,0.4,0.4V37
			C49.8,37.3,49.6,37.4,49.4,37.4z"/>
		<g>
			<path class="st12" d="M38.2,51.2h-2.1l-0.1,5.5h2.1c0.3,0,0.5-0.2,0.5-0.5l0.1-4.5C38.7,51.4,38.5,51.2,38.2,51.2z"/>
			<path class="st12" d="M38.5,44.4c-0.7-0.3-1.5-0.5-2.2-0.6l0,2.4c0.8,0.1,1.7,0.5,2.5,1c0.2,0.1,0.5,0,0.5-0.3l0.1-1.4
				C39.3,45.1,39,44.6,38.5,44.4z"/>
		</g>
		<path d="M26.2,66.6h-4.2c-0.4,0-0.7,0.3-0.7,0.7c0,0.4,0.3,0.7,0.7,0.7h4.2c0.4,0,0.7-0.3,0.7-0.7C26.9,66.9,26.6,66.6,26.2,66.6z
			"/>
		<path d="M38.1,65.9h-5.7c-0.4,0-0.7,0.3-0.7,0.7c0,0.4,0.3,0.7,0.7,0.7h5.7c0.4,0,0.7-0.3,0.7-0.7C38.8,66.2,38.5,65.9,38.1,65.9z
			"/>
		<path d="M38.1,68.2h-5.7c-0.4,0-0.7,0.3-0.7,0.7c0,0.4,0.3,0.7,0.7,0.7h5.7c0.4,0,0.7-0.3,0.7-0.7C38.8,68.6,38.5,68.2,38.1,68.2z
			"/>
		<path d="M50.7,67.6h-7.8c-0.4,0-0.7,0.3-0.7,0.7c0,0.4,0.3,0.7,0.7,0.7h7.8c0.4,0,0.7-0.3,0.7-0.7C51.5,67.9,51.2,67.6,50.7,67.6z
			"/>
		<path d="M24,53.9c-1.8,0-3.3,1.5-3.3,3.3c0,1.8,1.5,3.3,3.3,3.3c1.8,0,3.3-1.5,3.3-3.3C27.3,55.3,25.9,53.9,24,53.9z M24,59
			c-1,0-1.8-0.8-1.8-1.8c0-1,0.8-1.8,1.8-1.8s1.8,0.8,1.8,1.8C25.8,58.1,25,59,24,59z"/>
		<path d="M38.8,43.7c-2.3-1-4.8-1-7.1,0c-0.7,0.3-1.2,1.1-1.2,1.9l0.1,1.4c0,0.4,0.2,0.7,0.6,0.9c0.3,0.2,0.8,0.2,1.1-0.1
			c2-1.3,4.1-1.3,6.1,0c0.2,0.1,0.4,0.2,0.6,0.2c0.2,0,0.3,0,0.5-0.1c0.3-0.2,0.6-0.5,0.6-0.9l0.1-1.4C40,44.8,39.6,44.1,38.8,43.7z
			 M38.5,46.3c-1-0.6-2.1-0.8-3.2-0.8c-1.1,0-2.2,0.3-3.2,0.8l0-0.7c0-0.2,0.1-0.4,0.3-0.4c2-0.8,4-0.8,6,0c0.2,0.1,0.3,0.2,0.3,0.4
			L38.5,46.3z"/>
		<path d="M38.2,50.5h-5.9c-0.3,0-0.6,0.1-0.9,0.4c-0.2,0.2-0.4,0.6-0.4,0.9l0.1,4.5c0,0.7,0.6,1.2,1.2,1.2h5.8
			c0.7,0,1.2-0.5,1.2-1.2l0.1-4.5c0-0.3-0.1-0.6-0.4-0.9C38.9,50.6,38.5,50.5,38.2,50.5z M37.9,56h-5.3l-0.1-4h5.4L37.9,56z"/>
		<path d="M46.8,65.7c2.5,0,4.5-1.5,4.5-3.3c0-1.9-2-3.3-4.5-3.3s-4.5,1.5-4.5,3.3C42.3,64.3,44.3,65.7,46.8,65.7z M46.8,60.6
			c1.6,0,3,0.8,3,1.8c0,1-1.4,1.8-3,1.8s-3-0.8-3-1.8C43.8,61.4,45.2,60.6,46.8,60.6z"/>
		<path d="M52.9,75.9c1.2,0,2.3-1,2.3-2.3V50.2c0-1-0.5-1.9-1.2-2.6L50.6,45c0.2-0.5,0.3-1.3,0.3-2.6c0-1.9-0.4-3.5-0.7-4.6
			c0.2-0.2,0.3-0.5,0.3-0.8v-4.4c0-0.6-0.5-1.2-1.2-1.2h-5.1c-0.6,0-1.2,0.5-1.2,1.2V37c0,0.3,0.1,0.6,0.3,0.8
			c-0.3,1.1-0.7,2.7-0.7,4.6c0,1.3,0.1,2.1,0.3,2.6l-0.6,0.5l0.1-3.5c0-0.6-0.2-1.3-0.7-1.7l-2.9-3c-0.3-0.3-0.5-0.7-0.5-1.1v-1.2
			c0.2-0.2,0.3-0.5,0.3-0.7v-8.9c0-0.6-0.5-1.2-1.2-1.2h-4.7c-0.6,0-1.2,0.5-1.2,1.2v8.9c0,0.3,0.1,0.5,0.3,0.7v1.2
			c0,0.4-0.2,0.8-0.5,1.1l-2.9,3C28.2,40.7,28,41.4,28,42l0.1,5.8c-0.8-0.3-1.3-1.1-1.4-2c0.3-0.2,0.5-0.6,0.5-1v-3.8
			c0-0.6-0.5-1.1-1.1-1.1H22c-0.6,0-1.1,0.5-1.1,1.1v3.8c0,0.4,0.2,0.8,0.5,1c-0.1,1.1-0.9,2-2,2.2c0,0,0,0,0,0
			c-1.9,0.2-3.4,1.9-3.4,3.9v2.3c0,0.4,0.3,0.7,0.7,0.7c0.4,0,0.7-0.3,0.7-0.7v-2.3c0-1.2,0.9-2.2,2.1-2.4c0.1,0,0.3,0,0.5,0
			c0,0,0,0,0,0c0.1,0,0.1,0,0.2,0c0,0,0.1,0,0.1,0c0,0,0,0,0,0c0,0,0,0,0.1,0c0,0,0,0,0.1,0c1.8,0,5.3,0,7,0c0,0,0.1,0,0.1,0
			c0,0,0,0,0,0c0,0,0,0,0.1,0c0,0,0,0,0.1,0c0.1,0,0.2,0,0.3,0l0,2.3h-8.4c-1,0-1.7,0.8-1.7,1.7v15.4l0,0l0,0c0,0.8,0.7,1.5,1.5,1.5
			h9c0,0,0,0.1-0.1,0.1c-0.4,0.3-0.6,0.7-0.6,1.2l0.1,2.4c0,0.1,0,0.2,0,0.3h-9.9c-0.3,0-0.6-0.3-0.6-0.6V57.7
			c0-0.4-0.3-0.7-0.7-0.7c-0.4,0-0.7,0.3-0.7,0.7v16.1c0,1.2,1,2.1,2.1,2.1H52.9C52.9,75.9,52.9,75.9,52.9,75.9
			C52.9,75.9,52.9,75.9,52.9,75.9 M22.3,41.4h3.4v3.1h-3.4C22.3,44.5,22.3,41.4,22.3,41.4z M23.1,48C23.1,48,23.1,48,23.1,48
			c-0.3,0-0.6,0-0.9,0c0,0,0,0,0,0c0.4-0.6,0.7-1.2,0.7-2h2.4c0.1,0.7,0.3,1.4,0.7,2C25.1,48,24,48,23.1,48z M19.5,53.5
			c0-0.1,0.1-0.2,0.2-0.2h8.4l0.1,7.8h-8.8V53.5z M19.5,62.5h8.8l0,1.2h-8.8V62.5z M19.5,68.9v-3.7h8.9l0.1,3.7H19.5L19.5,68.9z
			 M33.2,25.6h4v1.2h-4V25.6L33.2,25.6z M33.2,28.3h4v5.6h-4V28.3L33.2,28.3z M41.1,74.1c0,0.2-0.2,0.3-0.3,0.3c0,0,0,0,0,0h-11
			c-0.2,0-0.3-0.1-0.3-0.3l-0.1-2.4c0.4-0.3,0.7-0.8,0.6-1.4L29.5,42c0,0,0,0,0,0l0,0c0,0,0,0,0,0c0-0.2,0.1-0.5,0.2-0.6l2.9-3
			c0.6-0.6,0.9-1.4,0.9-2.2v-0.8H37v0.8c0,0.8,0.3,1.6,0.9,2.2l2.9,3c0.2,0.2,0.2,0.4,0.2,0.6c0,0,0,0,0,0l0,0c0,0,0,0,0,0
			l-0.5,28.3c0,0.5,0.2,1.1,0.6,1.4L41.1,74.1z M44.6,32.9H49v1.1h-4.4V32.9z M44.6,35.5H49v1.2h-4.4V35.5z M44.9,38.2h3.8
			c0.3,0.8,0.6,1.9,0.7,3.3h-5.1C44.4,40.1,44.7,39,44.9,38.2z M53.6,73.6c0,0.4-0.3,0.8-0.8,0.8H42.5c0-0.1,0-0.2,0-0.3l0-1.4h11
			L53.6,73.6L53.6,73.6z M53.6,51h-6.6c-0.4,0-0.7,0.3-0.7,0.7c0,0.4,0.3,0.7,0.7,0.7h6.6v18.8H42.6c-0.1-0.3-0.3-0.6-0.5-0.7
			c0,0-0.1-0.1-0.1-0.2l0.2-12.5c0.3,0.2,0.6,0.4,0.9,0.4c0.2,0,0.4,0,0.5-0.1c2.1-1,4.1-1,6.2,0c0,0,0,0,0,0c0.6,0.3,1.3,0,1.7-0.5
			l0.6-1c0.2-0.3,0.2-0.7,0.1-1.1c-0.1-0.4-0.4-0.7-0.7-0.8c-3.1-1.4-6.2-1.5-9.4-0.1l0-2.1h1.3c0.4,0,0.7-0.3,0.7-0.7
			c0-0.4-0.3-0.7-0.7-0.7h-1.3l0.1-3.5l2-1.6c0.2-0.1,0.3-0.3,0.3-0.5c0-0.2,0-0.4-0.2-0.5c0-0.1-0.3-0.5-0.3-1.8h5.2
			c0,1.3-0.3,1.7-0.3,1.8c-0.1,0.1-0.2,0.3-0.2,0.5c0,0.2,0.1,0.4,0.3,0.5l3.8,3c0.4,0.3,0.7,0.9,0.7,1.4L53.6,51L53.6,51z
			 M50.4,56.6c-2.4-1-4.8-1-7.2,0l-0.4-0.7c2.7-1.2,5.4-1.2,8,0L50.4,56.6z M50.6,56.7C50.6,56.7,50.6,56.7,50.6,56.7
			C50.6,56.7,50.6,56.7,50.6,56.7L50.6,56.7z"/>
	</g>
	<g>
		<g>
			<path class="st15" d="M72.2,68.7c-0.1,0.6,0,1.2,0.2,1.8l0.6,1.9c0.4,1.1-0.2,2.4-1.4,2.7c-0.2,0.1-0.5,0.1-0.7,0.1h-5.6
				c-1.2,0-2.2-1-2.2-2.2c0-0.2,0-0.5,0.1-0.7l0.6-1.9c0.2-0.6,0.3-1.2,0.2-1.8l-1-11.2c0-0.6,0-1.1,0.2-1.7l2.6-8.8v-2.3h4.5v2.3
				l2.6,8.8c0.2,0.5,0.2,1.1,0.2,1.7L72.2,68.7z"/>
			<path class="st16" d="M71.6,43.7l-0.1,1.1h-6.8v-1.1c0-0.6,0.5-1.1,1.1-1.1c0,0,0,0,0,0h4.6C71.1,42.6,71.6,43.1,71.6,43.7
				C71.6,43.7,71.6,43.7,71.6,43.7z"/>
			<path class="st17" d="M71.6,43.7l-0.1,1.1h-1.1l0.1-1.7c0-0.2-0.1-0.4-0.2-0.6h0.2C71.1,42.6,71.6,43.1,71.6,43.7
				C71.6,43.7,71.6,43.7,71.6,43.7z"/>
			<path class="st18" d="M72.2,68.7c-0.1,0.6,0,1.2,0.2,1.8l0.6,1.9c0.4,1.1-0.2,2.4-1.4,2.7c-0.2,0.1-0.5,0.1-0.7,0.1h-5.6
				c-0.8,0-1.5-0.4-1.9-1.1c0.3,0.2,0.7,0.3,1,0.3h5.6c1.2,0,2.2-1,2.2-2.2c0-0.2,0-0.5-0.1-0.7l-0.6-1.9c-0.2-0.6-0.3-1.2-0.2-1.8
				l1-11.2c0-0.6,0-1.1-0.2-1.7l-2.4-8.1c-0.4-1.2-1.5-2.1-2.8-2.1h3.5v2.3l2.6,8.8c0.2,0.5,0.2,1.1,0.2,1.7L72.2,68.7z"/>
			<path d="M73.8,57.6c0.1-0.6,0-1.3-0.2-1.9L71,47v-1.6h0.6c0.3,0,0.6-0.3,0.6-0.6c0,0,0,0,0,0v-1.1c0-0.9-0.8-1.7-1.7-1.7h-4.5
				c-0.9,0-1.7,0.8-1.7,1.7v1.1c0,0.3,0.3,0.6,0.6,0.6c0,0,0,0,0,0h0.6V47l-2.6,8.7c-0.2,0.6-0.2,1.2-0.2,1.9l1,11.2
				c0,0.5,0,1.1-0.2,1.6l-0.6,1.9c-0.5,1.4,0.3,3,1.7,3.5c0.3,0.1,0.6,0.1,0.9,0.1H71c1.5,0,2.7-1.2,2.7-2.7c0-0.3,0-0.6-0.1-0.9
				L73,70.4c-0.2-0.5-0.2-1.1-0.2-1.6L73.8,57.6z M65.4,43.7c0-0.3,0.3-0.6,0.6-0.6h4.5c0.3,0,0.6,0.3,0.6,0.6v0.6h-5.6V43.7z
				 M72.6,57.5l-1,11.2c-0.1,0.7,0,1.4,0.2,2l0.6,1.9c0.3,0.8-0.2,1.8-1,2c-0.2,0.1-0.3,0.1-0.5,0.1h-5.6c-0.9,0-1.6-0.7-1.6-1.6
				c0-0.2,0-0.3,0.1-0.5l0.6-1.9c0.2-0.7,0.3-1.4,0.2-2l-1-11.2c0-0.5,0-1,0.1-1.5l2.6-8.8c0-0.1,0-0.1,0-0.2v-1.7h3.4v1.7
				c0,0.1,0,0.1,0,0.2l2.6,8.8C72.6,56.5,72.7,57,72.6,57.5z"/>
			<circle cx="65.9" cy="59" r="0.6"/>
			<circle cx="65.9" cy="61.2" r="0.6"/>
			<circle cx="65.9" cy="63.5" r="0.6"/>
			<circle cx="65.9" cy="65.7" r="0.6"/>
			<circle cx="68.2" cy="59" r="0.6"/>
			<circle cx="68.2" cy="61.2" r="0.6"/>
			<circle cx="68.2" cy="63.5" r="0.6"/>
			<circle cx="68.2" cy="65.7" r="0.6"/>
			<circle cx="70.5" cy="59" r="0.6"/>
			<circle cx="70.5" cy="61.2" r="0.6"/>
			<circle cx="70.5" cy="63.5" r="0.6"/>
			<circle cx="70.5" cy="65.7" r="0.6"/>
		</g>
		<g>
			<rect x="75.6" y="47.7" class="st19" width="6.8" height="3.4"/>
			<rect x="81.2" y="47.7" class="st20" width="1.1" height="3.4"/>
			<path class="st21" d="M83.1,60.4l-0.8,0.8l0.8,0.8c0.2,0.2,0.4,0.5,0.4,0.8v8c0,0.3-0.1,0.6-0.4,0.8l-0.8,0.8l0.8,0.8
				c0.5,0.5,0.5,1.2,0,1.7c-0.2,0.2-0.5,0.4-0.8,0.4h-6.6c-0.7,0-1.2-0.5-1.2-1.2c0-0.3,0.1-0.6,0.4-0.8l0.8-0.8l-0.8-0.8
				c-0.2-0.2-0.4-0.5-0.4-0.8v-8c0-0.3,0.1-0.6,0.4-0.8l0.8-0.8l-0.8-0.8c-0.2-0.2-0.4-0.5-0.4-0.8v-4.7c0-0.3,0.1-0.6,0.4-0.8
				l1.9-1.9v-1.1h4.5v1.1l1.9,1.9c0.2,0.2,0.4,0.5,0.4,0.8v4.7C83.5,59.9,83.4,60.2,83.1,60.4z"/>
			<path class="st19" d="M75,54.4h7.9c0.3,0,0.6,0.3,0.6,0.6v4.5c0,0.3-0.3,0.6-0.6,0.6H75c-0.3,0-0.6-0.3-0.6-0.6V55
				C74.5,54.7,74.7,54.4,75,54.4z"/>
			<path class="st22" d="M83.1,60.4l-0.8,0.8l0.8,0.8c0.2,0.2,0.4,0.5,0.4,0.8v8c0,0.3-0.1,0.6-0.4,0.8l-0.8,0.8l0.8,0.8
				c0.5,0.5,0.5,1.2,0,1.7c-0.2,0.2-0.5,0.4-0.8,0.4h-6.6c-0.5,0-0.9-0.3-1.1-0.8v-0.4h6.1c0.7,0,1.2-0.5,1.2-1.2
				c0-0.3-0.1-0.6-0.4-0.8l-0.8-0.8l0.8-0.8c0.2-0.2,0.4-0.5,0.4-0.8v-8c0-0.3-0.1-0.6-0.4-0.8l-0.8-0.8l0.8-0.8
				c0.2-0.2,0.4-0.5,0.4-0.8v-4.7c0-0.3-0.1-0.6-0.4-0.8l-1.9-1.9h1.7v1.1l1.9,1.9c0.2,0.2,0.4,0.5,0.4,0.8v4.7
				C83.5,59.9,83.4,60.2,83.1,60.4z"/>
			<path class="st20" d="M83.5,55v4.5c0,0.3-0.3,0.6-0.6,0.6c0,0,0,0,0,0h-2.3l0.8-0.8c0.2-0.2,0.4-0.5,0.4-0.8v-4h1.1
				C83.2,54.4,83.5,54.7,83.5,55C83.5,55,83.5,55,83.5,55z"/>
			<path d="M83.5,53.7l-1.7-1.7v-0.3h0.6c0.3,0,0.6-0.3,0.6-0.6c0,0,0,0,0,0v-3.4c0-0.3-0.3-0.6-0.6-0.6c0,0,0,0,0,0h-6.8
				c-0.3,0-0.6,0.3-0.6,0.6c0,0,0,0,0,0v3.4c0,0.3,0.3,0.6,0.6,0.6c0,0,0,0,0,0h0.6v0.3l-1.7,1.7c-0.3,0.3-0.5,0.8-0.5,1.2v4.7
				c0,0.5,0.2,0.9,0.5,1.2l0.4,0.4l-0.4,0.4c-0.3,0.3-0.5,0.8-0.5,1.2v8c0,0.5,0.2,0.9,0.5,1.2l0.4,0.4l-0.4,0.4
				c-0.7,0.7-0.7,1.8,0,2.5c0.3,0.3,0.8,0.5,1.2,0.5h6.6c1,0,1.8-0.8,1.8-1.8c0-0.5-0.2-0.9-0.5-1.2l-0.4-0.4l0.4-0.4
				c0.3-0.3,0.5-0.8,0.5-1.2v-8c0-0.5-0.2-0.9-0.5-1.2l-0.4-0.4l0.4-0.4c0.3-0.3,0.5-0.8,0.5-1.2v-4.7C84.1,54.5,83.9,54,83.5,53.7z
				 M75,59.5V55h7.9v4.5H75z M76.2,48.2h5.6v2.3h-5.6V48.2z M77.1,52.6c0.1-0.1,0.2-0.2,0.2-0.4v-0.6h3.4v0.6c0,0.1,0.1,0.3,0.2,0.4
				l1.3,1.3h-6.3L77.1,52.6z M82.9,70.9c0,0.2-0.1,0.3-0.2,0.4l-0.6,0.6h-4.8v1.1h4.8l0.6,0.6c0.2,0.2,0.2,0.6,0,0.9
				c-0.1,0.1-0.3,0.2-0.4,0.2h-6.6c-0.3,0-0.6-0.3-0.6-0.6c0-0.2,0.1-0.3,0.2-0.4l0.8-0.8c0.2-0.2,0.2-0.6,0-0.8c0,0,0,0,0,0
				l-0.8-0.8C75.1,71.2,75,71,75,70.9v-8c0-0.2,0.1-0.3,0.2-0.4l0.8-0.8c0.2-0.2,0.2-0.6,0-0.8c0,0,0,0,0,0l-0.2-0.2h6.3L82,60.8
				c-0.2,0.2-0.2,0.6,0,0.8c0,0,0,0,0,0l0.8,0.8c0.1,0.1,0.2,0.3,0.2,0.4V70.9z"/>
			<path d="M80.8,62.6c-1.8,2.6-1.8,6,0,8.6l0.9-0.7c-1.5-2.2-1.5-5.1,0-7.2L80.8,62.6z"/>
			<path d="M76.3,63.2c1.5,2.2,1.5,5.1,0,7.2l0.9,0.7c1.8-2.6,1.8-6,0-8.6L76.3,63.2z"/>
		</g>
		<g>
			<rect x="52.9" y="60.6" class="st23" width="9" height="12.4"/>
			<rect x="60.5" y="60.6" class="st24" width="1.4" height="12.4"/>
			<polygon class="st21" points="61.9,73.1 61.4,75.3 53.5,75.3 52.9,73.1 			"/>
			<path class="st22" d="M61.9,73.1l-0.6,2.3h-7.9l-0.3-1.1h5.9c0.7,0,1.3-0.5,1.4-1.1l0,0H61.9z"/>
			<polygon class="st21" points="61.9,60.6 52.9,60.6 53.5,58.4 61.4,58.4 			"/>
			<path class="st22" d="M61.9,60.6h-1.4l-0.2-1c-0.2-0.8-0.9-1.3-1.6-1.3h2.7L61.9,60.6z"/>
			<path class="st22" d="M58,55.7c0,0.3,0,0.7-0.1,1c0,0.2-0.1,0.3-0.2,0.4c-0.2,0.5-0.5,0.9-0.8,1.2l0,0h-1.1l0,0
				c-0.7-0.7-1.1-1.7-1.1-2.7c0,0,0-0.1,0-0.1c0.1-0.9,0.9-1.6,1.8-1.6c0.6,0.1,1.2,0.5,1.4,1c0.1,0.2,0.1,0.3,0.1,0.5
				C58,55.6,58,55.7,58,55.7z"/>
			<path class="st19" d="M61.9,60.6v3.2c0,1.4-0.5,2.7-1.4,3.8c-0.1,0.1-0.2,0.2-0.3,0.3c-1.1,1.1-1.7,2.6-1.7,4.1v1h-2.3v-3.2
				c0-1.5,0.6-3,1.7-4.1c1.1-1.1,1.7-2.6,1.7-4.1v-1H61.9z"/>
			<path class="st20" d="M61.9,60.6v3.2c0,1.4-0.5,2.7-1.4,3.8v-7H61.9z"/>
			<path d="M62.5,60.5L62.5,60.5l-0.6-2.3c-0.1-0.3-0.3-0.4-0.5-0.4H58c0.4-0.6,0.6-1.4,0.6-2.1c0-1.2-1-2.3-2.3-2.3s-2.3,1-2.3,2.3
				c0,0.7,0.2,1.5,0.6,2.1h-1.1c-0.3,0-0.5,0.2-0.5,0.4l-0.6,2.3l0,0c0,0,0,0.1,0,0.1v12.4c0,0,0,0.1,0,0.1l0,0l0.6,2.3
				c0.1,0.3,0.3,0.4,0.5,0.4h7.9c0.3,0,0.5-0.2,0.5-0.4l0.6-2.3l0,0c0,0,0-0.1,0-0.1V60.6C62.5,60.6,62.5,60.6,62.5,60.5z
				 M57.1,54.9c0.2,0.2,0.3,0.4,0.3,0.7h-2.2c0.1-0.6,0.6-1.1,1.3-1C56.7,54.6,56.9,54.7,57.1,54.9L57.1,54.9z M55.3,56.7h1.9
				c-0.1,0.4-0.4,0.8-0.6,1.1H56C55.7,57.5,55.4,57.1,55.3,56.7z M60.9,59l0.3,1.1h-7.6l0.3-1.1H60.9z M55.7,72.5h-2.3V61.2h5.6v0.4
				c0,1.4-0.5,2.7-1.5,3.7c-1.2,1.2-1.9,2.8-1.9,4.5V72.5z M53.9,74.8l-0.3-1.1h7.6l-0.3,1.1H53.9z M61.4,72.5h-2.3v-0.4
				c0-1.4,0.5-2.7,1.5-3.7c0.3-0.3,0.5-0.6,0.7-0.9V72.5z M59.8,67.6c-1.2,1.2-1.9,2.8-1.9,4.5v0.4h-1.1v-2.7c0-1.4,0.5-2.7,1.5-3.7
				c1.2-1.2,1.9-2.8,1.9-4.5v-0.4h1.1v2.7C61.4,65.3,60.8,66.6,59.8,67.6z"/>
		</g>
	</g>
</g>
</svg>
