<?xml version="1.0" encoding="utf-8"?>
<!-- Generator: Adobe Illustrator 23.0.1, SVG Export Plug-In . SVG Version: 6.00 Build 0)  -->
<svg version="1.1" id="regular" xmlns="http://www.w3.org/2000/svg" xmlns:xlink="http://www.w3.org/1999/xlink" x="0px" y="0px"
	 viewBox="0 0 100 100" style="enable-background:new 0 0 100 100;" xml:space="preserve">
<style type="text/css">
	.st0{fill:#FFC107;}
	.st1{fill:#607D8B;}
</style>
<path class="st0" d="M69.7,50c0,6.1-2.8,11.7-7.5,15.5C60.2,67,59,69,58.6,71.1c-0.1,0-0.1,0-0.1,0H41.6c-0.1,0-0.1,0-0.2,0
	c-0.4-2.2-1.5-4.2-3.2-5.4c-6.1-4.6-9-12.2-7.4-19.9c1.5-7.4,7.6-13.5,15-15.1c5.9-1.3,12,0.2,16.6,3.9C67,38.5,69.7,44,69.7,50z"/>
<path class="st1" d="M58.6,71.1c-0.1,0.5-0.1,1-0.1,1.5v6.2c0,2.7-2.2,4.9-4.9,4.9h-7c-2.4,0-4.9-1.8-4.9-5.7v-5
	c0-0.6-0.1-1.3-0.2-1.9c0.1,0,0.1,0,0.2,0h16.9C58.5,71.1,58.5,71.1,58.6,71.1L58.6,71.1z"/>
<path d="M56.3,75.3H43.7c-1.2,0-2.1-0.9-2.1-2.1c0-1.2,0.9-2.1,2.1-2.1h12.6c1.2,0,2.1,0.9,2.1,2.1C58.4,74.3,57.5,75.3,56.3,75.3z"
	/>
<path d="M50,26c-1.2,0-2.1-0.9-2.1-2.1v-5.5c0-1.2,0.9-2.1,2.1-2.1s2.1,0.9,2.1,2.1v5.5C52.1,25.1,51.2,26,50,26z"/>
<path d="M68.5,33.6c-0.5,0-1.1-0.2-1.5-0.6c-0.8-0.8-0.8-2.2,0-3l3.9-3.9c0.8-0.8,2.2-0.8,3,0s0.8,2.2,0,3L70,33
	C69.5,33.4,69,33.6,68.5,33.6z"/>
<path d="M81.6,52.1h-5.5c-1.2,0-2.1-0.9-2.1-2.1c0-1.2,0.9-2.1,2.1-2.1h5.5c1.2,0,2.1,0.9,2.1,2.1C83.7,51.2,82.8,52.1,81.6,52.1z"
	/>
<path d="M72.3,74.5c-0.5,0-1.1-0.2-1.5-0.6L67,69.9c-0.8-0.8-0.8-2.2,0-3c0.8-0.8,2.2-0.8,3,0l3.9,3.9c0.8,0.8,0.8,2.2,0,3
	C73.4,74.2,72.9,74.5,72.3,74.5z"/>
<path d="M27.7,74.5c-0.5,0-1.1-0.2-1.5-0.6c-0.8-0.8-0.8-2.2,0-3l3.9-3.9c0.8-0.8,2.2-0.8,3,0c0.8,0.8,0.8,2.2,0,3l-3.9,3.9
	C28.7,74.2,28.2,74.5,27.7,74.5z"/>
<path d="M23.9,52.1h-5.5c-1.2,0-2.1-0.9-2.1-2.1c0-1.2,0.9-2.1,2.1-2.1h5.5c1.2,0,2.1,0.9,2.1,2.1C26,51.2,25.1,52.1,23.9,52.1z"/>
<path d="M31.5,33.6c-0.5,0-1.1-0.2-1.5-0.6l-3.9-3.9c-0.8-0.8-0.8-2.2,0-3c0.8-0.8,2.2-0.8,3,0L33,30c0.8,0.8,0.8,2.2,0,3
	C32.6,33.4,32.1,33.6,31.5,33.6z"/>
<path d="M60.5,51.4c-1.2,0-2.1-0.9-2.1-2.1c0-4.3-3.5-7.7-7.7-7.7c-1.2,0-2.1-0.9-2.1-2.1c0-1.2,0.9-2.1,2.1-2.1
	c6.6,0,11.9,5.4,11.9,11.9C62.6,50.5,61.7,51.4,60.5,51.4z"/>
<path d="M53.5,83.7h-7c-2.4,0-4.9-1.8-4.9-5.7v-5c0-3-1.3-5.7-3.4-7.3c-6.1-4.6-9-12.2-7.4-19.8c1.5-7.5,7.6-13.5,15-15.1
	c5.9-1.2,12,0.2,16.6,4c4.6,3.8,7.3,9.3,7.3,15.3c0,6.1-2.7,11.7-7.5,15.4c-2.4,1.9-3.7,4.4-3.7,7.1v6.2
	C58.4,81.5,56.2,83.7,53.5,83.7L53.5,83.7z M50,34.6c-1.1,0-2.2,0.1-3.3,0.3c-5.8,1.2-10.6,6-11.8,11.8c-1.2,6,1,12,5.8,15.6
	c3.2,2.4,5.1,6.4,5.1,10.7v5c0,0.3,0,1.5,0.7,1.5h7c0.4,0,0.7-0.3,0.7-0.7v-6.2c0-4,1.9-7.8,5.3-10.4c3.8-2.9,5.9-7.4,5.9-12.1
	c0-4.7-2.1-9-5.7-12C57,35.7,53.5,34.6,50,34.6L50,34.6z"/>
</svg>
