<?xml version="1.0" encoding="utf-8"?>
<!-- Generator: Adobe Illustrator 23.0.1, SVG Export Plug-In . SVG Version: 6.00 Build 0)  -->
<svg version="1.1" id="Capa_1" xmlns="http://www.w3.org/2000/svg" xmlns:xlink="http://www.w3.org/1999/xlink" x="0px" y="0px"
	 viewBox="0 0 100 100" style="enable-background:new 0 0 100 100;" xml:space="preserve">
<style type="text/css">
	.st0{fill:#FFA64D;}
	.st1{fill:#44C973;}
	.st2{fill:#FF4F4F;}
	.st3{fill:#FBDF97;}
	.st4{fill:#917464;}
	.st5{fill:#5A6B96;}
	.st6{fill:#EFEFEF;}
	.st7{fill:#8CE0FF;}
</style>
<g>
	<g>
		<rect x="29.1" y="23.3" class="st0" width="30.2" height="15.1"/>
		<rect x="37.2" y="67.4" class="st0" width="13.9" height="4.6"/>
	</g>
	<g>
		<path d="M60.5,18.6H27.9c-1.9,0-3.5,1.6-3.5,3.5v55.7c0,1.9,1.6,3.5,3.5,3.5h32.5c1.9,0,3.5-1.6,3.5-3.5V22.1
			C63.9,20.2,62.4,18.6,60.5,18.6z M27.9,21h32.5c0.6,0,1.2,0.5,1.2,1.2v18.6h-2.3V43h2.3v18.6H26.8V43H57v-2.3H26.8V22.1
			C26.8,21.5,27.3,21,27.9,21z M60.5,79H27.9c-0.6,0-1.2-0.5-1.2-1.2V63.9h8.3H44h2.5h9.3h5.8v13.9C61.6,78.5,61.1,79,60.5,79z"/>
		<rect x="29.1" y="23.3" width="9.3" height="2.3"/>
		<path d="M80.2,36.5l-4.6-2.3V18.6c0-2.6-2.1-4.6-4.6-4.6c-1.9,0-3.6,1.2-4.3,2.8c-1.5-1.7-3.7-2.8-6.2-2.8H27.9
			c-4.5,0-8.1,3.6-8.1,8.1v55.7c0,4.5,3.6,8.1,8.1,8.1h32.5c2.5,0,4.7-1.1,6.2-2.8c0.7,1.7,2.4,2.8,4.3,2.8c2.6,0,4.6-2.1,4.6-4.6
			V54.2l4.6-2.3V36.5z M73.2,81.4c0,1.3-1,2.3-2.3,2.3c-1.3,0-2.3-1-2.3-2.3v-5.8h-2.3v2.3c0,3.2-2.6,5.8-5.8,5.8H27.9
			c-3.2,0-5.8-2.6-5.8-5.8V22.1c0-3.2,2.6-5.8,5.8-5.8h32.5c3.2,0,5.8,2.6,5.8,5.8v51.1h2.3V18.6c0-1.3,1-2.3,2.3-2.3
			c1.3,0,2.3,1,2.3,2.3V81.4z M77.9,50.4l-2.3,1.2V36.8l2.3,1.2V50.4z"/>
	</g>
	<g>
		<path class="st1" d="M53.4,55c0,0-0.3-0.8,0-1.3c0.3-0.5,1.1-0.7,1.1-0.7l0.1,0l0,0.1c0,0,0.3,0.8,0,1.3
			C54.3,54.9,53.5,55,53.4,55L53.4,55L53.4,55z"/>
		<path class="st2" d="M53.5,61.4c-1.9,0-3.5-1.6-3.5-3.5c0-1.3,1-2.3,2.3-2.3c0.4,0,0.9,0.1,1.2,0.4c0.4-0.2,0.8-0.4,1.2-0.4
			c1.3,0,2.3,1,2.3,2.3c0,0,0,0,0,0.1c0,0.9-0.4,1.8-1,2.4C55.3,61,54.4,61.4,53.5,61.4z"/>
		<path d="M49.6,57.9c0,2.1,1.7,3.8,3.8,3.8c1,0,2-0.4,2.7-1.1c0.7-0.7,1.1-1.7,1.1-2.7c0,0,0,0,0-0.1c0-0.8-0.4-1.6-1-2.1
			c-0.5-0.3-1-0.5-1.6-0.5c-0.4,0-0.9,0.1-1.2,0.3c-0.4-0.2-0.8-0.3-1.2-0.3C50.8,55.3,49.6,56.5,49.6,57.9z M53.7,56.4
			c0.3-0.2,0.7-0.3,1-0.3c0.4,0,0.8,0.1,1.1,0.4c0.5,0.4,0.7,0.9,0.7,1.5c0,0,0,0,0,0.1c0,1.7-1.4,3-3.1,3c-1.7,0-3.1-1.4-3.1-3.1
			c0-1,0.8-1.8,1.8-1.8c0.4,0,0.7,0.1,1,0.3C53.4,56.4,53.5,56.4,53.7,56.4z"/>
		<path d="M53.4,55.3C53.5,55.3,53.5,55.3,53.4,55.3c0.2,0,1-0.2,1.4-0.8c0.4-0.7,0.1-1.5,0-1.6c-0.1-0.2-0.2-0.3-0.4-0.2
			c-0.1,0-1,0.2-1.3,0.8c-0.4,0.7-0.1,1.5,0,1.6C53.2,55.2,53.3,55.3,53.4,55.3z M53.8,53.9c0.1-0.2,0.3-0.3,0.5-0.4
			c0,0.2,0,0.4-0.1,0.6c0,0,0,0,0,0c-0.1,0.2-0.3,0.3-0.5,0.4C53.7,54.3,53.7,54.1,53.8,53.9z"/>
	</g>
	<g>
		<path class="st3" d="M44.2,59.7c-0.8,0-1.4-0.6-1.4-1.4v-1.4c0-0.8,0.6-1.4,1.4-1.4h1.1c0.8,0,1.4,0.6,1.4,1.4v1.4
			c0,0.8-0.6,1.4-1.4,1.4H44.2z"/>
		<path class="st4" d="M41.6,61.4v-7l0.9-1.9H47l0.9,1.9v7H41.6z M44.2,55.6c-0.7,0-1.2,0.6-1.2,1.2v1.4c0,0.7,0.6,1.2,1.2,1.2h1.1
			c0.7,0,1.2-0.6,1.2-1.2v-1.4c0-0.7-0.6-1.2-1.2-1.2H44.2z"/>
		<path d="M41.7,61.7h6.1c0.2,0,0.4-0.2,0.4-0.4v-6.9c0-0.1,0-0.1,0-0.2l-0.8-1.8c-0.1-0.1-0.2-0.2-0.3-0.2h-4.4
			c-0.1,0-0.3,0.1-0.3,0.2l-0.8,1.8c0,0,0,0.1,0,0.2v6.9C41.3,61.5,41.5,61.7,41.7,61.7z M42.1,54.5l0.7-1.5h0.4v0.2
			c0,0.2,0.2,0.4,0.4,0.4s0.4-0.2,0.4-0.4V53h0.4v0.2c0,0.2,0.2,0.4,0.4,0.4c0.2,0,0.4-0.2,0.4-0.4V53h0.4v0.2
			c0,0.2,0.2,0.4,0.4,0.4c0.2,0,0.4-0.2,0.4-0.4V53h0.4l0.7,1.5v6.4h-5.3V54.5z"/>
		<path d="M45.3,55.2h-1.1c-0.9,0-1.7,0.8-1.7,1.7v1.4c0,0.9,0.8,1.7,1.7,1.7h1.1c0.9,0,1.7-0.8,1.7-1.7v-1.4
			C47,56,46.2,55.2,45.3,55.2z M46.2,58.3c0,0.5-0.4,0.9-0.9,0.9h-1.1c-0.5,0-0.9-0.4-0.9-0.9v-1.4c0-0.5,0.4-0.9,0.9-0.9h1.1
			c0.5,0,0.9,0.4,0.9,0.9V58.3z"/>
		<path d="M45.4,57.2h-1.3c-0.2,0-0.4,0.2-0.4,0.4c0,0.2,0.2,0.4,0.4,0.4h1.3c0.2,0,0.4-0.2,0.4-0.4C45.8,57.4,45.6,57.2,45.4,57.2z
			"/>
	</g>
	<g>
		<rect x="35" y="44.1" class="st5" width="2.5" height="1.5"/>
		<path class="st6" d="M33,61.4V54c0-0.7,0.1-1.4,0.3-2.1c0.2-0.7,0.4-1.4,0.8-2c0.7-1.3,1-2.7,1-4.1v-0.3h2.5v0.3
			c0,0.7,0.1,1.4,0.3,2.1c0.2,0.7,0.4,1.4,0.8,2c0.7,1.3,1,2.7,1,4.1v7.3L33,61.4L33,61.4z M38.1,60V54c0-1.2-0.3-2.4-0.9-3.5
			c-0.1-0.2-0.2-0.4-0.3-0.6h-1.5c-0.1,0.2-0.2,0.4-0.3,0.6c-0.6,1.1-0.9,2.3-0.9,3.5V60L38.1,60L38.1,60z"/>
		<path class="st7" d="M34.2,60.1V54c0-1.2,0.3-2.5,0.9-3.6c0.1-0.2,0.2-0.4,0.3-0.6l0,0h1.6l0,0c0.1,0.2,0.2,0.4,0.3,0.6
			c0.6,1.1,0.9,2.3,0.9,3.6v6.1H34.2L34.2,60.1z"/>
		<path d="M37.7,44.1c0-0.2-0.2-0.4-0.4-0.4h-2.3c-0.2,0-0.4,0.2-0.4,0.4v1.7c0,1.4-0.3,2.7-1,3.9c-0.3,0.7-0.6,1.4-0.8,2.1
			c-0.2,0.7-0.3,1.5-0.3,2.2v7.3c0,0.2,0.2,0.4,0.4,0.4h6.4c0.2,0,0.4-0.2,0.4-0.4V54c0-1.5-0.4-3-1.1-4.3c-0.3-0.6-0.6-1.2-0.7-1.9
			c-0.2-0.7-0.2-1.3-0.2-2L37.7,44.1L37.7,44.1z M37,44.5v0.7h-1.6v-0.7H37z M38.1,50.1c0.6,1.2,1,2.6,1,3.9v6.9h-5.7V54
			c0-0.7,0.1-1.4,0.2-2c0.2-0.7,0.4-1.3,0.7-1.9c0.7-1.3,1-2.7,1.1-4.2H37c0,0.7,0.1,1.4,0.3,2.1C37.5,48.7,37.8,49.4,38.1,50.1z"/>
		<path d="M37,49.6h-1.5c-0.1,0-0.3,0.1-0.3,0.2c-0.1,0.2-0.2,0.4-0.3,0.6C34.3,51.5,34,52.7,34,54v6c0,0.2,0.2,0.4,0.4,0.4h3.9
			c0.2,0,0.4-0.2,0.4-0.4v-6c0-1.3-0.3-2.6-0.9-3.7c-0.1-0.2-0.2-0.4-0.3-0.6C37.3,49.6,37.2,49.6,37,49.6z M37.8,54v5.7h-3.2V54
			c0-1.2,0.3-2.3,0.8-3.4c0.1-0.1,0.1-0.3,0.2-0.4h1.1c0.1,0.1,0.1,0.3,0.2,0.4C37.5,51.7,37.8,52.9,37.8,54z"/>
		<path d="M37,56.2c-0.2,0-0.4,0.2-0.4,0.4v2.2c0,0.2,0.2,0.4,0.4,0.4c0.2,0,0.4-0.2,0.4-0.4v-2.2C37.4,56.3,37.2,56.2,37,56.2z"/>
		<path d="M37,55.8c0.5,0,0.5-0.7,0-0.7C36.6,55.1,36.6,55.8,37,55.8z"/>
	</g>
</g>
</svg>
