<?xml version="1.0" encoding="utf-8"?>
<!-- Generator: Adobe Illustrator 23.0.1, SVG Export Plug-In . SVG Version: 6.00 Build 0)  -->
<svg version="1.1" id="Capa_1" xmlns="http://www.w3.org/2000/svg" xmlns:xlink="http://www.w3.org/1999/xlink" x="0px" y="0px"
	 viewBox="0 0 100 100" style="enable-background:new 0 0 100 100;" xml:space="preserve">
<style type="text/css">
	.st0{fill:#9345EB;}
	.st1{fill:#D4B5F7;}
	.st2{fill:#FFB033;}
	.st3{fill:#FFD085;}
	.st4{fill:#081C1F;}
</style>
<g>
	<path class="st0" d="M71.8,60.6c-1.5-1.5-3.5-2.3-5.6-2.3c-2.1,0-4.1,0.8-5.6,2.3c-1.5,1.5-2.3,3.5-2.3,5.6c0,2.1,0.8,4.1,2.3,5.6
		c1.5,1.5,3.5,2.3,5.6,2.3c2.1,0,4.1-0.8,5.6-2.3s2.3-3.5,2.3-5.6C74.1,64.1,73.2,62.1,71.8,60.6z"/>
	<path class="st1" d="M26.5,45.8c0.5-1.1,1.1-2.9,0.7-4.6c-0.1-0.1-0.3-0.2-0.4-0.4c-0.1-0.1-0.3-0.3-0.4-0.4
		c-1.7-0.3-3.5,0.2-4.6,0.7c0.5,0.7,1.3,1.6,2.2,2.5C24.9,44.5,25.8,45.2,26.5,45.8z"/>
	<path class="st1" d="M41.2,27.2c1.7,0.3,3.5-0.2,4.6-0.7c-0.5-0.7-1.3-1.6-2.2-2.5c-0.9-0.9-1.8-1.7-2.5-2.2
		c-0.5,1.1-1.1,2.9-0.7,4.6c0.1,0.1,0.3,0.2,0.4,0.4C40.9,26.9,41,27.1,41.2,27.2z"/>
	<path class="st1" d="M73.5,54.2c-0.5,1.1-1.1,2.9-0.7,4.6c0.1,0.1,0.3,0.2,0.4,0.4c0.1,0.1,0.2,0.3,0.4,0.4
		c1.7,0.3,3.5-0.2,4.6-0.7c-0.5-0.7-1.3-1.6-2.2-2.5C75.1,55.5,74.2,54.8,73.5,54.2z"/>
	<path class="st1" d="M58.8,72.8c-1.7-0.3-3.5,0.2-4.6,0.7c0.5,0.7,1.3,1.6,2.2,2.5c0.9,0.9,1.8,1.7,2.5,2.2
		c0.5-1.1,1.1-2.9,0.7-4.6c-0.1-0.1-0.3-0.2-0.4-0.4C59.1,73.1,59,72.9,58.8,72.8z"/>
	<path class="st0" d="M28.2,39.4c1.5,1.5,3.5,2.3,5.6,2.3c2.1,0,4.1-0.8,5.6-2.3c1.5-1.5,2.3-3.5,2.3-5.6c0-2.1-0.8-4.1-2.3-5.6
		c-1.5-1.5-3.5-2.3-5.6-2.3c-2.1,0-4.1,0.8-5.6,2.3C25.2,31.3,25.2,36.3,28.2,39.4z"/>
	<path class="st2" d="M33.2,64.6c-5-1.1-10.1,1.1-12.3,2.1c0.4,0.6,0.6,1.1,0.7,1.6c0.2,0.6,0.4,1.1,1.1,1.8
		c0.7,0.7,1.2,0.9,1.8,1.1c0.7,0.2,1.6,0.5,2.6,1.6c1.1,1.1,1.3,1.9,1.6,2.6c0.2,0.6,0.4,1.1,1.1,1.8c0.7,0.7,1.2,0.9,1.8,1.1
		c0.5,0.2,1,0.3,1.6,0.7c1.1-2.1,3.3-7.3,2.1-12.3c-0.4-0.3-0.8-0.6-1.2-1C33.9,65.4,33.6,65,33.2,64.6z"/>
	<path class="st2" d="M79,33.3c-0.4-0.6-0.6-1.1-0.7-1.6c-0.2-0.6-0.4-1.1-1.1-1.8c-0.7-0.7-1.2-0.9-1.8-1.1
		c-0.7-0.2-1.6-0.5-2.6-1.6c-1.1-1.1-1.3-1.9-1.6-2.6c-0.2-0.6-0.4-1.1-1.1-1.8c-0.7-0.7-1.2-0.9-1.8-1.1c-0.5-0.2-1-0.3-1.6-0.7
		c-1.1,2.1-3.3,7.3-2.1,12.3c0.4,0.3,0.8,0.6,1.2,1c0.4,0.4,0.7,0.8,1,1.2C71.7,36.5,76.9,34.4,79,33.3z"/>
	<path class="st3" d="M51.5,41.5c-0.2,0.2-0.5,0.3-0.7,0.3c-0.3,0-0.5-0.1-0.7-0.3l-2.1-2.1l-8.6,8.6l10.6,10.6c0.4,0.4,0.4,1,0,1.4
		c0,0,0.1,0.1,0.1,0.1c0.1,0.1,0.1,0.1,0.2,0.2l0.6,0.6c0.2,0.2,0.4,0.4,0.5,0.5l9.3-9.3l-7.7-7.7c-0.4-0.4-0.4-1,0-1.4L51.5,41.5z"
		/>
	<path class="st2" d="M50.2,60.3L50,60.1l-0.1-0.1c-0.2,0.2-0.5,0.3-0.7,0.3c-0.3,0-0.5-0.1-0.7-0.3L37.9,49.4l-2.2,2.2
		C34,53.3,33,55.6,33,58c0,2.4,0.9,4.7,2.6,6.4c1.7,1.7,4,2.6,6.4,2.6c2.4,0,4.7-0.9,6.4-2.6l3-3l-0.5-0.5L50.2,60.3z"/>
	<path class="st2" d="M64.3,35.7C62.6,34,60.4,33,58,33c-2.4,0-4.7,0.9-6.4,2.6l-2.2,2.2l2.1,2.1c0.4,0.4,0.4,1,0,1.4l1.4,1.4
		c0.4-0.4,1-0.4,1.4,0l7.7,7.7l2.2-2.2C67.8,44.9,67.8,39.2,64.3,35.7z"/>
	<path class="st4" d="M81.3,32.9c-0.7-0.7-0.9-1.2-1.1-1.8c-0.2-0.7-0.5-1.6-1.6-2.6c-1.1-1.1-1.9-1.3-2.6-1.6
		c-0.6-0.2-1.1-0.4-1.8-1.1c-0.7-0.7-0.9-1.2-1.1-1.8c-0.2-0.7-0.5-1.6-1.6-2.6c-1.1-1.1-1.9-1.3-2.6-1.6c-0.6-0.2-1.1-0.4-1.8-1.1
		c-0.2-0.2-0.5-0.3-0.8-0.3c-0.3,0-0.6,0.2-0.7,0.5c-0.2,0.3-3.9,6.4-3.2,13C61,31.3,59.5,31,58,31c-2.9,0-5.7,1.1-7.8,3.2l-13,13
		c0,0-3,3-3,3C32.2,52.3,31,55,31,58c0,1.5,0.3,3,0.9,4.4c-6.6-0.7-12.8,3.1-13,3.2c-0.3,0.2-0.4,0.4-0.5,0.7c0,0.3,0.1,0.6,0.3,0.8
		c0.7,0.7,0.9,1.2,1.1,1.8c0.2,0.7,0.5,1.6,1.6,2.6c1.1,1.1,1.9,1.3,2.6,1.6c0.6,0.2,1.1,0.4,1.8,1.1c0.7,0.7,0.9,1.2,1.1,1.8
		c0.2,0.7,0.5,1.6,1.6,2.6c1.1,1.1,1.9,1.3,2.6,1.6c0.6,0.2,1.1,0.4,1.8,1.1c0.2,0.2,0.4,0.3,0.7,0.3c0,0,0.1,0,0.1,0
		c0.3,0,0.6-0.2,0.7-0.5c0.2-0.3,3.9-6.4,3.2-13C39,68.7,40.5,69,42,69c2.9,0,5.7-1.1,7.8-3.2l15.9-15.9c3.3-3.3,4-8.1,2.3-12.1
		c0.6,0.1,1.1,0.1,1.6,0.1c6,0,11.1-3.2,11.4-3.3c0.3-0.2,0.4-0.4,0.5-0.7C81.6,33.4,81.5,33.1,81.3,32.9z M62.1,50.6l-7.7-7.7
		c-0.4-0.4-1-0.4-1.4,0c-0.4,0.4-0.4,1,0,1.4l7.7,7.7l-9.3,9.3l-3,3C46.7,66,44.4,67,42,67c-2.4,0-4.7-0.9-6.4-2.6
		C34,62.6,33,60.4,33,58c0-2.4,0.9-4.7,2.6-6.4l2.2-2.2l10.6,10.6c0.2,0.2,0.5,0.3,0.7,0.3c0.3,0,0.5-0.1,0.7-0.3
		c0.4-0.4,0.4-1,0-1.4L39.4,47.9l8.6-8.6l2.1,2.1c0.2,0.2,0.5,0.3,0.7,0.3c0.3,0,0.5-0.1,0.7-0.3c0.4-0.4,0.4-1,0-1.4l-2.1-2.1
		l2.2-2.2c1.7-1.7,4-2.6,6.4-2.6c2.4,0,4.7,0.9,6.4,2.6c3.5,3.5,3.5,9.2,0,12.7L62.1,50.6z M33.3,79c-0.6-0.4-1.1-0.6-1.6-0.7
		c-0.6-0.2-1.1-0.4-1.8-1.1c-0.7-0.7-0.9-1.2-1.1-1.8c-0.2-0.7-0.5-1.6-1.6-2.6c-1.1-1.1-1.9-1.3-2.6-1.6c-0.6-0.2-1.1-0.4-1.8-1.1
		c-0.7-0.7-0.9-1.2-1.1-1.8c-0.2-0.5-0.3-1-0.7-1.6c2.1-1.1,7.3-3.3,12.3-2.1c0.3,0.4,0.6,0.8,1,1.2c0.4,0.4,0.8,0.7,1.2,1
		C36.5,71.7,34.4,76.9,33.3,79z M65.7,34.3c-0.4-0.4-0.8-0.7-1.2-1c-1.1-5,1.1-10.1,2.1-12.3c0.6,0.4,1.1,0.6,1.6,0.7
		c0.6,0.2,1.1,0.4,1.8,1.1c0.7,0.7,0.9,1.2,1.1,1.8c0.2,0.7,0.5,1.6,1.6,2.6c1.1,1.1,1.9,1.3,2.6,1.6c0.6,0.2,1.1,0.4,1.8,1.1
		c0.7,0.7,0.9,1.2,1.1,1.8c0.2,0.5,0.3,1,0.7,1.6c-2.1,1.1-7.3,3.3-12.3,2.1C66.4,35,66.1,34.6,65.7,34.3z"/>
	<path class="st4" d="M22.6,45c1.8,1.8,3.6,3,3.7,3.1c0.2,0.1,0.4,0.2,0.6,0.2c0.1,0,0.1,0,0.2,0c0.3-0.1,0.5-0.2,0.6-0.5
		c0.1-0.1,1.5-2.4,1.6-5.2c1.4,0.7,2.9,1.1,4.5,1.1c2.6,0,5.1-1,7-2.9c1.9-1.9,2.9-4.3,2.9-7c0-1.6-0.4-3.1-1.1-4.5
		c2.8-0.1,5.1-1.5,5.2-1.6c0.2-0.1,0.4-0.4,0.5-0.6c0.1-0.3,0-0.5-0.2-0.8c-0.1-0.1-1.3-1.9-3.1-3.7c-1.8-1.8-3.6-3-3.7-3.1
		c-0.2-0.2-0.5-0.2-0.8-0.2c-0.3,0.1-0.5,0.2-0.6,0.5c-0.1,0.1-1.5,2.4-1.6,5.2c-1.4-0.7-2.9-1.1-4.5-1.1c-2.6,0-5.1,1-7,2.9
		c-3.1,3.1-3.7,7.8-1.8,11.5c-2.8,0.1-5.1,1.5-5.2,1.6c-0.2,0.1-0.4,0.4-0.5,0.6c-0.1,0.3,0,0.5,0.2,0.8
		C19.6,41.4,20.8,43.2,22.6,45z M26.5,40.4c0.1,0.1,0.2,0.3,0.4,0.4c0.1,0.1,0.3,0.2,0.4,0.4c0.3,1.7-0.2,3.5-0.7,4.6
		c-0.7-0.5-1.6-1.3-2.5-2.2c-0.9-0.9-1.7-1.8-2.2-2.5C22.9,40.6,24.7,40,26.5,40.4z M33.8,25.9c2.1,0,4.1,0.8,5.6,2.3
		c1.5,1.5,2.3,3.5,2.3,5.6c0,2.1-0.8,4.1-2.3,5.6c-1.5,1.5-3.5,2.3-5.6,2.3c-2.1,0-4.1-0.8-5.6-2.3c-3.1-3.1-3.1-8,0-11.1
		C29.7,26.8,31.7,25.9,33.8,25.9z M41.1,21.9c0.7,0.5,1.6,1.3,2.5,2.2c0.9,0.9,1.7,1.8,2.2,2.5c-1.1,0.5-2.9,1.1-4.6,0.7
		c-0.1-0.1-0.2-0.3-0.4-0.4c-0.1-0.1-0.3-0.2-0.4-0.4C40.1,24.7,40.6,22.9,41.1,21.9z"/>
	<path class="st4" d="M77.4,55c-1.8-1.8-3.6-3-3.7-3.1c-0.2-0.2-0.5-0.2-0.8-0.2c-0.3,0.1-0.5,0.2-0.6,0.5c-0.1,0.1-1.5,2.4-1.6,5.2
		c-1.4-0.7-2.9-1.1-4.5-1.1c-2.6,0-5.1,1-7,2.9c-1.9,1.9-2.9,4.3-2.9,7c0,1.6,0.4,3.1,1.1,4.5c-2.8,0.1-5.1,1.5-5.2,1.6
		c-0.2,0.1-0.4,0.4-0.5,0.6c-0.1,0.3,0,0.5,0.2,0.8c0.1,0.1,1.3,1.9,3.1,3.7c1.8,1.8,3.6,3,3.7,3.1c0.2,0.1,0.4,0.2,0.6,0.2
		c0.1,0,0.1,0,0.2,0c0.3-0.1,0.5-0.2,0.6-0.5c0.1-0.1,1.5-2.4,1.6-5.2c1.4,0.7,2.9,1.1,4.5,1.1c2.6,0,5.1-1,7-2.9
		c1.9-1.9,2.9-4.3,2.9-7c0-1.6-0.4-3.1-1.1-4.5c2.8-0.1,5.1-1.5,5.2-1.6c0.2-0.1,0.4-0.4,0.5-0.6s0-0.5-0.2-0.8
		C80.5,58.6,79.2,56.8,77.4,55z M73.5,59.6c-0.1-0.1-0.2-0.3-0.4-0.4c-0.1-0.1-0.3-0.2-0.4-0.4c-0.3-1.7,0.2-3.5,0.7-4.6
		c0.7,0.5,1.6,1.3,2.5,2.2c0.9,0.9,1.7,1.8,2.2,2.5C77.1,59.4,75.3,60,73.5,59.6z M66.2,74.1c-2.1,0-4.1-0.8-5.6-2.3
		c-1.5-1.5-2.3-3.5-2.3-5.6c0-2.1,0.8-4.1,2.3-5.6c1.5-1.5,3.5-2.3,5.6-2.3c2.1,0,4.1,0.8,5.6,2.3c1.5,1.5,2.3,3.5,2.3,5.6
		c0,2.1-0.8,4.1-2.3,5.6C70.3,73.2,68.3,74.1,66.2,74.1z M58.9,78.1c-0.7-0.5-1.6-1.3-2.5-2.2c-0.9-0.9-1.7-1.8-2.2-2.5
		c1.1-0.5,2.9-1.1,4.6-0.7c0.1,0.1,0.2,0.3,0.4,0.4s0.3,0.2,0.4,0.4C60,75.3,59.4,77.1,58.9,78.1z"/>
</g>
</svg>
