<?xml version="1.0" encoding="utf-8"?>
<!-- Generator: Adobe Illustrator 23.0.1, SVG Export Plug-In . SVG Version: 6.00 Build 0)  -->
<svg version="1.1" id="Hygiene_Icons" xmlns="http://www.w3.org/2000/svg" xmlns:xlink="http://www.w3.org/1999/xlink" x="0px"
	 y="0px" viewBox="0 0 512 512" style="enable-background:new 0 0 512 512;" xml:space="preserve">
<style type="text/css">
	.st0{fill:#526FAA;}
	.st1{fill:#34518C;}
	.st2{fill:#708DC8;}
	.st3{fill:#F4EFED;}
	.st4{fill:#FCC24C;}
	.st5{fill:#DEA42E;}
	.st6{fill:#FCE06A;}
	.st7{fill:#D6D1CF;}
	.st8{fill:#690589;}
	.st9{fill:#FFFFFF;}
</style>
<g>
	<g>
		<path class="st0" d="M272.7,415.7H172.5c-11.3,0-20.4-9.1-20.4-20.4V204.2c0-15,12.2-27.2,27.2-27.2h86.6
			c15,0,27.2,12.2,27.2,27.2v191.2C293.1,406.6,284,415.7,272.7,415.7L272.7,415.7z"/>
	</g>
	<g>
		<path class="st1" d="M265.9,176.9h-13.6c15,0,27.2,12.2,27.2,27.2v191.2c0,11.3-9.1,20.4-20.4,20.4h13.6
			c11.3,0,20.4-9.1,20.4-20.4V204.2C293.1,189.1,280.9,176.9,265.9,176.9z"/>
	</g>
	<g>
		<path class="st2" d="M179.3,176.9h13.6c-15,0-27.2,12.2-27.2,27.2v191.2c0,11.3,9.1,20.4,20.4,20.4h-13.6
			c-11.3,0-20.4-9.1-20.4-20.4V204.2C152.1,189.1,164.3,176.9,179.3,176.9z"/>
	</g>
	<g>
		<path class="st3" d="M230,176.9h-14.8v-64c0-4.1,3.3-7.4,7.4-7.4s7.4,3.3,7.4,7.4V176.9z"/>
	</g>
	<g>
		<path d="M272.7,418.3H172.5c-12.7,0-23-10.3-23-23V204.2c0-16.4,13.4-29.8,29.8-29.8h86.6c16.4,0,29.8,13.4,29.8,29.8v191.2
			C295.7,408,285.4,418.3,272.7,418.3z M179.3,179.5c-13.6,0-24.6,11.1-24.6,24.6v191.2c0,9.8,8,17.8,17.8,17.8h100.2
			c9.8,0,17.8-8,17.8-17.8V204.2c0-13.6-11.1-24.6-24.6-24.6L179.3,179.5z"/>
	</g>
	<g>
		<path d="M230,179.5h-14.8c-1.4,0-2.6-1.2-2.6-2.6v-64c0-5.5,4.5-10,10-10c5.5,0,10,4.5,10,10v64
			C232.6,178.4,231.4,179.5,230,179.5L230,179.5z M217.8,174.4h9.7V113c0-2.7-2.2-4.8-4.8-4.8c-2.7,0-4.8,2.2-4.8,4.8V174.4z"/>
	</g>
	<g>
		<path class="st4" d="M152.1,249.2h141v94.4h-141L152.1,249.2z"/>
	</g>
	<g>
		<path class="st5" d="M279.4,249.2h13.7v94.4h-13.7V249.2z"/>
	</g>
	<g>
		<path class="st6" d="M152.1,249.2h13.7v94.4h-13.7L152.1,249.2z"/>
	</g>
	<g>
		<path d="M293.1,346.1h-141c-1.4,0-2.6-1.2-2.6-2.6v-94.4c0-1.4,1.2-2.6,2.6-2.6h141c1.4,0,2.6,1.2,2.6,2.6v94.4
			C295.7,344.9,294.5,346.1,293.1,346.1z M154.6,340.9h135.9v-89.2H154.6V340.9z"/>
	</g>
	<g>
		<path class="st4" d="M269.6,119h-72.2c-6.3,0-11.4-5.1-11.4-11.4c0-6.3,5.1-11.4,11.4-11.4h72.2c6.3,0,11.4,5.1,11.4,11.4
			C280.9,113.9,275.8,119,269.6,119z"/>
	</g>
	<g>
		<path class="st5" d="M269.6,96.3h-10.9c6.3,0,11.4,5.1,11.4,11.4s-5.1,11.4-11.4,11.4h10.9c6.3,0,11.4-5.1,11.4-11.4
			C280.9,101.4,275.8,96.3,269.6,96.3z"/>
	</g>
	<g>
		<path class="st6" d="M197.4,119h10.9c-6.3,0-11.4-5.1-11.4-11.4c0-6.3,5.1-11.4,11.4-11.4h-10.9c-6.3,0-11.4,5.1-11.4,11.4
			S191.1,119,197.4,119z"/>
	</g>
	<g>
		<path d="M269.6,121.6h-72.2c-7.7,0-13.9-6.3-13.9-14s6.3-13.9,13.9-13.9h72.2c7.7,0,14,6.3,14,14S277.3,121.6,269.6,121.6z
			 M197.4,98.8c-4.9,0-8.8,3.9-8.8,8.8s3.9,8.8,8.8,8.8h72.2c4.9,0,8.8-3.9,8.8-8.8c0-4.9-3.9-8.8-8.8-8.8H197.4z"/>
	</g>
	<g>
		<path class="st0" d="M236.9,156.9h-28.5c-4,0-7.3,3.2-7.3,7.3v12.8h43v-12.8C244.1,160.1,240.9,156.9,236.9,156.9z"/>
	</g>
	<g>
		<path class="st1" d="M236.9,156.9h-6.8c4,0,7.3,3.2,7.3,7.3v12.8h6.8v-12.8C244.1,160.1,240.9,156.9,236.9,156.9z"/>
	</g>
	<g>
		<path class="st2" d="M208.3,156.9h6.8c-4,0-7.3,3.2-7.3,7.3v12.8h-6.8v-12.8C201.1,160.1,204.3,156.9,208.3,156.9z"/>
	</g>
	<g>
		<path d="M244.1,179.5h-43c-1.4,0-2.6-1.2-2.6-2.6v-12.8c0-5.4,4.4-9.8,9.8-9.8h28.5c5.4,0,9.8,4.4,9.8,9.8v12.8
			C246.7,178.4,245.5,179.5,244.1,179.5z M203.6,174.4h37.9v-10.3c0-2.6-2.1-4.7-4.7-4.7h-28.5c-2.6,0-4.7,2.1-4.7,4.7V174.4z"/>
	</g>
	<g>
		<path d="M165.8,236.6c-1.4,0-2.6-1.2-2.6-2.6v-15.5c0-1.4,1.2-2.6,2.6-2.6c1.4,0,2.6,1.2,2.6,2.6V234
			C168.3,235.4,167.2,236.6,165.8,236.6z"/>
	</g>
	<g>
		<g>
			<path class="st3" d="M309.4,201h18.8l-3.5-18.5h-11.8L309.4,201z"/>
		</g>
		<g>
			<path class="st4" d="M299.5,216.3h38.8l-10-15.3h-18.8L299.5,216.3z"/>
		</g>
		<g>
			<path class="st3" d="M287.9,315.3h61.9v10.3h-61.9V315.3z"/>
		</g>
		<g>
			<path class="st0" d="M338.2,216.3h-38.8l-11.6,98.9h61.9L338.2,216.3z"/>
		</g>
		<g>
			<path class="st1" d="M340.1,315.3l-11.6-98.9h9.7l11.6,98.9H340.1z"/>
		</g>
		<g>
			<path d="M349.8,318.3h-61.9c-0.9,0-1.7-0.4-2.2-1c-0.6-0.6-0.8-1.5-0.7-2.3l11.6-98.9c0.2-1.5,1.5-2.7,3-2.7h38.8
				c1.5,0,2.8,1.1,3,2.7l11.6,98.9c0.1,0.9-0.2,1.7-0.7,2.3C351.5,317.9,350.7,318.3,349.8,318.3L349.8,318.3z M291.2,312.3h55.2
				l-10.9-92.9h-33.4L291.2,312.3z"/>
		</g>
		<g>
			<path class="st5" d="M328.5,216.3l-6.4-15.3h6.2l10,15.3H328.5z"/>
		</g>
		<g>
			<path class="st7" d="M322.1,201l-3.5-18.5h6.2l3.5,18.5H322.1z"/>
		</g>
		<g>
			<path d="M338.2,219.3h-38.8c-1.1,0-2.1-0.6-2.6-1.6c-0.5-1-0.5-2.1,0.1-3.1l10-15.3c0.6-0.9,1.5-1.4,2.5-1.4h18.8
				c1,0,2,0.5,2.5,1.4l10,15.3c0.6,0.9,0.6,2.1,0.1,3.1C340.3,218.7,339.3,219.3,338.2,219.3z M305,213.3h27.7l-6.1-9.3h-15.6
				L305,213.3z"/>
		</g>
		<g>
			<path d="M328.2,204h-18.8c-0.9,0-1.7-0.4-2.3-1.1c-0.6-0.7-0.8-1.6-0.6-2.5L310,182c0.3-1.4,1.5-2.4,3-2.4h11.8
				c1.4,0,2.7,1,3,2.4l3.5,18.5c0.2,0.9-0.1,1.8-0.6,2.5C330,203.6,329.1,204,328.2,204z M313.1,198h11.6l-2.4-12.5h-6.9L313.1,198z
				"/>
		</g>
		<g>
			<path class="st8" d="M349.8,328.6h-61.9c-1.7,0-3-1.3-3-3v-10.3c0-1.7,1.3-3,3-3h61.9c1.7,0,3,1.3,3,3v10.3
				C352.8,327.2,351.5,328.6,349.8,328.6z M290.9,322.6h55.9v-4.3h-55.9V322.6z"/>
		</g>
		<g>
			<g>
				<path class="st0" d="M272.9,349.3c-3.9,0-7-3.1-7-7v-82.2l-12.4-12.4c-1.3-1.3-2.1-3.1-2.1-5v-48.9c0-3.9,3.1-7,7-7
					c3.9,0,7,3.1,7,7v45.9l12.4,12.4c1.3,1.3,2.1,3.1,2.1,5v85.1C280,346.1,276.8,349.3,272.9,349.3z"/>
			</g>
		</g>
		<g>
			<path class="st3" d="M265.5,193.8h21v45.9h-21V193.8z"/>
		</g>
		<g>
			<g>
				<path d="M272.9,352.3c-5.5,0-10-4.5-10-10v-80.9l-11.5-11.5c-1.9-1.9-2.9-4.5-2.9-7.1v-48.9c0-5.5,4.5-10,10-10
					c5.5,0,10,4.5,10,10v44.7l11.5,11.5c1.9,1.9,2.9,4.4,2.9,7.1v85.1C283,347.8,278.5,352.3,272.9,352.3z M258.4,189.8
					c-2.2,0-4,1.8-4,4v48.9c0,1.1,0.4,2.1,1.2,2.8l12.4,12.4c0.6,0.6,0.9,1.3,0.9,2.1v82.2c0,2.2,1.8,4,4,4c2.2,0,4-1.8,4-4v-85.1
					c0-1.1-0.4-2.1-1.2-2.8l-12.4-12.4c-0.6-0.6-0.9-1.3-0.9-2.1v-45.9C262.5,191.6,260.7,189.8,258.4,189.8L258.4,189.8z"/>
			</g>
		</g>
		<g>
			<path d="M286.5,242.8h-21c-1.7,0-3-1.3-3-3v-45.9c0-1.7,1.3-3,3-3h21c1.7,0,3,1.3,3,3v45.9C289.5,241.4,288.1,242.8,286.5,242.8z
				 M268.5,236.8h15v-39.9h-15V236.8z"/>
		</g>
		<g>
			<path d="M286.5,207.6h-21c-1.7,0-3-1.3-3-3s1.3-3,3-3h21c1.7,0,3,1.3,3,3S288.1,207.6,286.5,207.6z"/>
		</g>
		<g>
			<path d="M286.5,219h-21c-1.7,0-3-1.3-3-3s1.3-3,3-3h21c1.7,0,3,1.3,3,3S288.1,219,286.5,219z"/>
		</g>
		<g>
			<path d="M286.5,230.5h-21c-1.7,0-3-1.3-3-3c0-1.7,1.3-3,3-3h21c1.7,0,3,1.3,3,3C289.5,229.2,288.1,230.5,286.5,230.5z"/>
		</g>
		<g>
			<path class="st3" d="M239.1,270.9h120.4l-15.9,144.4H255L239.1,270.9z"/>
		</g>
		<g>
			<path class="st7" d="M346.8,270.9l-15.9,144.4h12.7l15.9-144.4H346.8z"/>
		</g>
		<g>
			<path class="st9" d="M251.8,270.9l15.9,144.4H255l-15.9-144.4H251.8z"/>
		</g>
		<g>
			<path d="M343.6,418.3H255c-1.5,0-2.8-1.2-3-2.7l-15.9-144.4c-0.1-0.8,0.2-1.7,0.7-2.3c0.6-0.6,1.4-1,2.2-1h120.4
				c0.9,0,1.7,0.4,2.2,1c0.6,0.6,0.8,1.5,0.7,2.3l-15.9,144.4C346.5,417.2,345.2,418.3,343.6,418.3L343.6,418.3z M257.7,412.3h83.3
				l15.2-138.4H242.5L257.7,412.3z"/>
		</g>
	</g>
</g>
</svg>
