<?xml version="1.0" encoding="utf-8"?>
<!-- Generator: Adobe Illustrator 23.0.1, SVG Export Plug-In . SVG Version: 6.00 Build 0)  -->
<svg version="1.1" id="Capa_1" xmlns="http://www.w3.org/2000/svg" xmlns:xlink="http://www.w3.org/1999/xlink" x="0px" y="0px"
	 viewBox="0 0 100 100" style="enable-background:new 0 0 100 100;" xml:space="preserve">
<style type="text/css">
	.st0{fill:#4398D1;}
	.st1{fill:#398CC4;}
	.st2{fill:#726891;}
	.st3{fill:#E8594A;}
	.st4{fill:#7A709C;}
	.st5{fill:#E66712;}
	.st6{fill:#F77219;}
	.st7{fill:#D4D4D4;}
	.st8{fill:#EBEBEB;}
	.st9{fill:#F5A338;}
	.st10{fill:#F9B44D;}
	.st11{fill:#97D3E6;}
	.st12{fill:#8AC9DE;}
	.st13{fill:#7DBDD1;}
</style>
<g>
	<g>
		<polygon class="st0" points="58.6,78.9 28.6,78.9 24.3,45.7 62.9,45.7 		"/>
		<rect x="21.1" y="41.4" class="st0" width="45" height="4.3"/>
	</g>
	<polygon class="st1" points="24.3,45.7 24.8,50 62.3,50 62.9,45.7 	"/>
	<polygon class="st2" points="41.4,41.4 26.4,41.4 26.4,31.8 30.7,26.4 37.1,26.4 41.4,31.8 	"/>
	<rect x="30.7" y="18.9" class="st3" width="6.4" height="7.5"/>
	<rect x="26.4" y="31.8" class="st4" width="15" height="9.6"/>
	<rect x="58.5" y="22.5" transform="matrix(0.8947 -0.4466 0.4466 0.8947 -5.9655 29.5025)" class="st5" width="2.1" height="9.8"/>
	<g>
		<rect x="60.7" y="18.9" class="st6" width="4.3" height="4.3"/>
		<path class="st6" d="M55.4,27.5h-9.6c0-4.7,3.8-8.6,8.6-8.6h6.4v4.3L55.4,27.5z"/>
	</g>
	<rect x="48.9" y="27.5" class="st7" width="6.4" height="4.3"/>
	<polygon class="st8" points="48.9,31.8 55.4,31.8 60.7,37.1 60.7,41.4 45.7,41.4 45.7,35 	"/>
	<path class="st9" d="M73.6,63.9h-1.7c-1,0-2,0.2-2.9,0.7c-1.8,0.9-4,0.9-5.8,0c-0.9-0.5-1.9-0.7-2.9-0.7h-1.7c-3,0-5.4,2.4-5.4,5.4
		v6.4c0,3,2.4,5.4,5.4,5.4h1.7c1,0,2-0.2,2.9-0.7c1.8-0.9,4-0.9,5.8,0c0.9,0.5,1.9,0.7,2.9,0.7h1.7c3,0,5.4-2.4,5.4-5.4v-6.4
		C78.9,66.3,76.5,63.9,73.6,63.9z"/>
	<path class="st10" d="M73.6,74.6h-1.7c-1,0-2-0.2-2.9-0.7l0,0c-1.8-0.9-4-0.9-5.8,0l0,0c-0.9,0.5-1.9,0.7-2.9,0.7h-1.7
		c-3,0-5.4-2.4-5.4-5.4l0,0c0-3,2.4-5.4,5.4-5.4h1.7c1,0,2,0.2,2.9,0.7l0,0c1.8,0.9,4,0.9,5.8,0l0,0c0.9-0.5,1.9-0.7,2.9-0.7h1.7
		c3,0,5.4,2.4,5.4,5.4l0,0C78.9,72.2,76.5,74.6,73.6,74.6z"/>
	<g>
		<rect x="72.5" y="67.1" class="st9" width="2.1" height="2.1"/>
		<rect x="61.8" y="67.1" class="st9" width="2.1" height="2.1"/>
		<rect x="57.5" y="68.2" class="st9" width="2.1" height="2.1"/>
		<rect x="68.2" y="68.2" class="st9" width="2.1" height="2.1"/>
	</g>
	<path class="st11" d="M48.9,50v-8.6H31.8v24.6c0,1.8,1.4,3.2,3.2,3.2h10.7c1.8,0,3.2-1.4,3.2-3.2V55.4l4.3,2.2
		c1.1,0.6,2.5,0.1,3.1-1c0,0,0,0,0,0l0-0.1c0.6-1.2,0.1-2.6-1-3.2c0,0,0,0,0,0L48.9,50z"/>
	<path class="st12" d="M55.4,53.2L48.9,50v-8.6h-0.8C44.2,54.2,37.4,62,31.8,66.5c0.2,1.6,1.6,2.7,3.2,2.7h10.7
		c1.8,0,3.2-1.4,3.2-3.2V55.4l4.3,2.2c1.1,0.6,2.5,0.1,3.1-1c0,0,0,0,0,0l0-0.1C57,55.3,56.6,53.8,55.4,53.2
		C55.4,53.2,55.4,53.2,55.4,53.2z"/>
	<g>
		<rect x="35" y="58.6" class="st13" width="2.1" height="10.7"/>
		<rect x="39.3" y="58.6" class="st13" width="2.1" height="10.7"/>
		<rect x="43.6" y="58.6" class="st13" width="2.1" height="10.7"/>
	</g>
	<path d="M21.1,46.8h2.3l4.2,32.3c0.1,0.5,0.5,0.9,1.1,0.9h25.2c1.2,1.4,3,2.1,4.8,2.1h1.7c1.2,0,2.3-0.3,3.4-0.8
		c1.5-0.8,3.3-0.8,4.9,0c1.1,0.5,2.2,0.8,3.4,0.8h1.7c3.5,0,6.4-2.9,6.4-6.4v-6.4c0-3.5-2.9-6.4-6.4-6.4h-1.7
		c-1.2,0-2.3,0.3-3.4,0.8c-1.5,0.8-3.3,0.8-4.9,0c-0.6-0.3-1.3-0.5-1.9-0.6l2.1-16.2h2.3c0.6,0,1.1-0.5,1.1-1.1v-4.3
		c0-0.6-0.5-1.1-1.1-1.1h-4.3v-3.2c0-0.3-0.1-0.6-0.3-0.8l-5-5V28l1.6-1.3l2.8,5.5l1.9-1l-3-6l1.3-1.1H65c0.6,0,1.1-0.5,1.1-1.1
		v-4.3c0-0.6-0.5-1.1-1.1-1.1H54.3c-5.3,0-9.6,4.3-9.6,9.6c0,0.6,0.5,1.1,1.1,1.1h2.1v2.8L45,34.2c-0.2,0.2-0.3,0.5-0.3,0.8v5.4
		h-2.1v-8.6c0-0.1,0-0.3-0.1-0.4c0,0,0-0.1-0.1-0.1c0-0.1-0.1-0.1-0.1-0.2l-4.1-5.1v-7.1c0-0.6-0.5-1.1-1.1-1.1h-6.4
		c-0.6,0-1.1,0.5-1.1,1.1v7.1l-4.1,5.1c0,0.1-0.1,0.1-0.1,0.2c0,0,0,0.1-0.1,0.1c-0.1,0.1-0.1,0.3-0.1,0.4v8.6h-4.3
		c-0.6,0-1.1,0.5-1.1,1.1v4.3C20,46.3,20.5,46.8,21.1,46.8z M73.6,80h-1.7c-0.8,0-1.7-0.2-2.4-0.6c-2.1-1.1-4.6-1.1-6.8,0
		c-0.8,0.4-1.6,0.6-2.4,0.6h-1.7c-2.4,0-4.3-1.9-4.3-4.3v-1.6c1.2,1.1,2.7,1.6,4.3,1.6h1.7c1.2,0,2.3-0.3,3.4-0.8
		c1.5-0.8,3.3-0.8,4.9,0c1.1,0.5,2.2,0.8,3.4,0.8h1.7c1.6,0,3.1-0.6,4.3-1.6v1.6C77.9,78.1,75.9,80,73.6,80z M69.5,65.6
		c0.8-0.4,1.6-0.6,2.4-0.6h1.7c2.4,0,4.3,1.9,4.3,4.3s-1.9,4.3-4.3,4.3h-1.7c-0.8,0-1.7-0.2-2.4-0.6c-2.1-1.1-4.6-1.1-6.8,0
		c-0.8,0.4-1.6,0.6-2.4,0.6h-1.7c-2.4,0-4.3-1.9-4.3-4.3s1.9-4.3,4.3-4.3h1.7c0.8,0,1.7,0.2,2.4,0.6C64.8,66.6,67.3,66.6,69.5,65.6z
		 M59.6,62.9h-1c-3.5,0-6.4,2.9-6.4,6.4v6.4c0,0.7,0.1,1.5,0.4,2.1h-23l-4-31.1h5.2v19.3c0,2.4,1.9,4.3,4.3,4.3h10.7
		c2.4,0,4.3-1.9,4.3-4.3v-9l2.8,1.4c1.7,0.8,3.7,0.1,4.6-1.6c0,0,0,0,0,0c0.4-0.8,0.5-1.8,0.2-2.7c-0.3-0.9-0.9-1.6-1.7-2L50,49.3
		v-2.6h11.6L59.6,62.9z M45.7,42.5h2.1V50c0,0.4,0.2,0.8,0.6,1l6.4,3.2c0.3,0.2,0.6,0.4,0.7,0.8c0.1,0.4,0.1,0.7-0.1,1.1
		c-0.3,0.6-1.1,0.9-1.7,0.6c0,0,0,0,0,0l-4.3-2.2c-0.5-0.3-1.2,0-1.4,0.5c-0.1,0.1-0.1,0.3-0.1,0.5v10.7c0,1.2-1,2.1-2.1,2.1v-9.6
		h-2.1v9.6h-2.1v-9.6h-2.1v9.6h-2.1v-9.6H35v9.6c-1.2,0-2.1-1-2.1-2.1V42.5H45.7z M65,44.6H50v-2.1h15V44.6z M63.9,22.1h-2.1V20h2.1
		V22.1z M54.3,20h5.4v2.7L55,26.4h-8.1C47.4,22.7,50.6,20,54.3,20z M54.3,28.6v2.1H50v-2.1H54.3z M46.8,35.4l2.6-2.6h5.5l4.7,4.7
		v2.8H46.8V35.4z M31.2,27.5h5.4l2.6,3.2H28.7L31.2,27.5z M31.8,20h4.3v5.4h-4.3V20z M27.5,32.9h12.9v7.5H27.5V32.9z M22.1,42.5h8.6
		v2.1h-8.6V42.5z"/>
	<rect x="72.5" y="67.1" width="2.1" height="2.1"/>
	<rect x="61.8" y="67.1" width="2.1" height="2.1"/>
	<rect x="57.5" y="68.2" width="2.1" height="2.1"/>
	<rect x="68.2" y="68.2" width="2.1" height="2.1"/>
</g>
</svg>
