<?xml version="1.0" encoding="utf-8"?>
<!-- Generator: Adobe Illustrator 23.0.1, SVG Export Plug-In . SVG Version: 6.00 Build 0)  -->
<svg version="1.1" id="Filled" xmlns="http://www.w3.org/2000/svg" xmlns:xlink="http://www.w3.org/1999/xlink" x="0px" y="0px"
	 viewBox="0 0 100 100" style="enable-background:new 0 0 100 100;" xml:space="preserve">
<style type="text/css">
	.st0{fill:#FFB632;}
	.st1{fill:#EB423F;}
	.st2{fill:#AD6643;}
	.st3{fill:#596063;}
	.st4{fill:#7E8589;}
</style>
<g>
	<path class="st0" d="M55.9,27.6H24.6l-2.9,9.8v37.1v3.9h37.1v-41L55.9,27.6z"/>
	<path class="st1" d="M21.7,74.4h37.1v3.9H21.7V74.4z"/>
	<path class="st1" d="M24.6,21.7h31.2v5.9H24.6V21.7z"/>
	<g>
		<ellipse class="st2" cx="36.3" cy="47.1" rx="2" ry="2.9"/>
		<ellipse class="st2" cx="30.5" cy="52" rx="2" ry="2.9"/>
		<ellipse class="st2" cx="44.1" cy="47.1" rx="2" ry="2.9"/>
		<path class="st2" d="M45.6,56.8c-0.5,0-1.1,0.1-1.6,0.3c0.1-0.3,0.1-0.5,0.1-0.8c0-1.9-1.7-3.4-3.9-3.4c-2.2,0-3.9,1.5-3.9,3.4
			c0,0.3,0,0.6,0.1,0.8c-0.5-0.2-1-0.3-1.6-0.3c-1.9,0-3.4,1.3-3.4,2.9c0,1.6,1.5,2.9,3.4,2.9s3.4-1.3,3.4-2.9c0-0.2,0-0.3,0-0.5
			c1.3,0.6,2.7,0.6,4,0c0,0.2,0,0.3,0,0.5c0,1.6,1.5,2.9,3.4,2.9c1.9,0,3.4-1.3,3.4-2.9C49,58.1,47.5,56.8,45.6,56.8z"/>
		<ellipse class="st2" cx="50" cy="52" rx="2" ry="2.9"/>
	</g>
	<path class="st3" d="M43.2,74.4h33.2c1.1,0,2,0.9,2,2v2l0,0H41.2l0,0v-2C41.2,75.3,42.1,74.4,43.2,74.4z"/>
	<path class="st4" d="M76.3,74.4H43.2l2.7-6c0.5-1.1,1.8-1.8,3.3-1.8h21.1c1.5,0,2.8,0.7,3.3,1.8L76.3,74.4z"/>
	<path d="M33.4,47.1c0,2.2,1.3,3.9,2.9,3.9c1.6,0,2.9-1.7,2.9-3.9s-1.3-3.9-2.9-3.9C34.7,43.2,33.4,44.9,33.4,47.1z M37.3,47.1
		c0,1.2-0.6,2-1,2c-0.4,0-1-0.8-1-2c0-1.2,0.6-2,1-2C36.7,45.1,37.3,45.9,37.3,47.1z"/>
	<path d="M29.9,55.8c0.2,0,0.4,0.1,0.6,0.1c0.6,0,1.2-0.2,1.6-0.6c1.2-1.1,1.7-3.3,1-5.1c-0.4-1.1-1.2-1.8-2-2
		c-0.8-0.2-1.5,0-2.2,0.6c-1.2,1.1-1.7,3.3-1,5.1C28.3,54.8,29,55.6,29.9,55.8L29.9,55.8z M30.2,50.2c0.1-0.1,0.2-0.1,0.3-0.2
		c0,0,0.1,0,0.1,0c0.2,0.1,0.5,0.3,0.7,0.8c0.4,1.1,0.1,2.4-0.4,2.9c-0.2,0.2-0.4,0.2-0.4,0.1c-0.2-0.1-0.5-0.3-0.7-0.8
		C29.3,51.9,29.6,50.6,30.2,50.2L30.2,50.2z"/>
	<path d="M45.8,43.8c-0.6-0.6-1.4-0.8-2.2-0.6c-0.9,0.2-1.6,1-2,2c-0.7,1.8-0.3,4,1,5.1c0.4,0.4,1,0.6,1.6,0.6c0.2,0,0.4,0,0.6-0.1
		c0.9-0.2,1.6-1,2-2C47.4,47.1,47,44.9,45.8,43.8L45.8,43.8z M44.9,48.2c-0.2,0.5-0.5,0.8-0.7,0.8c0,0-0.2,0-0.4-0.1
		c-0.6-0.5-0.9-1.8-0.4-2.9c0.2-0.5,0.5-0.8,0.7-0.8c0,0,0.1,0,0.1,0c0.1,0,0.2,0.1,0.3,0.2C45,45.8,45.4,47.1,44.9,48.2L44.9,48.2z
		"/>
	<path d="M21.7,79.3h56.6c0.5,0,1-0.4,1-1v-2c0-1.4-0.9-2.5-2.3-2.8L74.5,68c-0.6-1.4-2.3-2.4-4.2-2.4H59.8V37.3c0-0.1,0-0.2,0-0.3
		l-2.9-9.6v-5.7c0-0.5-0.4-1-1-1H24.6c-0.5,0-1,0.4-1,1v5.7L20.8,37c0,0.1,0,0.2,0,0.3v41C20.7,78.8,21.2,79.3,21.7,79.3L21.7,79.3z
		 M77.3,76.3v1H42.2v-1c0-0.5,0.4-1,1-1h33.2C76.9,75.4,77.3,75.8,77.3,76.3z M70.3,67.6c1.1,0,2.1,0.5,2.4,1.2l2.1,4.7H44.7
		l2.1-4.7c0.3-0.7,1.3-1.2,2.4-1.2H70.3z M25.6,22.7h29.3v3.9H25.6V22.7z M22.7,38.3h4.9c0.5,0,1-0.4,1-1s-0.4-1-1-1H23l2.3-7.8
		h29.8l2.3,7.8h-3.6c-0.5,0-1,0.4-1,1s0.4,1,1,1h3.9v27.3h-8.6c-1.9,0-3.6,0.9-4.2,2.4l-2.4,5.4H22.7V38.3z M22.7,75.4h17.7
		c-0.1,0.3-0.2,0.6-0.2,1v1H22.7V75.4z"/>
	<path d="M31.5,38.3H50c0.5,0,1-0.4,1-1s-0.4-1-1-1H31.5c-0.5,0-1,0.4-1,1S30.9,38.3,31.5,38.3z"/>
	<path d="M50,59.8c0-2.2-2-3.9-4.4-3.9c-0.2,0-0.3,0-0.5,0c-0.3-2.2-2.3-3.9-4.8-3.9c-2.5,0-4.6,1.7-4.8,3.9c-0.2,0-0.3,0-0.5,0
		c-2.4,0-4.4,1.8-4.4,3.9c0,2.2,2,3.9,4.4,3.9c2.1,0,3.8-1.3,4.3-3c0.7,0.1,1.5,0.1,2.2,0c0.4,1.7,2.2,3,4.3,3
		C48,63.7,50,61.9,50,59.8z M43.2,59.8c0-0.1,0-0.2,0-0.3c0.1-0.5-0.2-1-0.8-1.1c-0.2,0-0.4,0-0.6,0.1c-1,0.5-2.1,0.5-3.1,0
		c-0.5-0.2-1.1-0.1-1.3,0.4c-0.1,0.2-0.1,0.4-0.1,0.6c0,0.1,0,0.2,0,0.3c0,1.1-1.1,2-2.4,2c-1.3,0-2.4-0.9-2.4-2s1.1-2,2.4-2
		c0.4,0,0.8,0.1,1.2,0.2c0.5,0.2,1.1,0,1.3-0.5c0.1-0.2,0.1-0.4,0-0.7c-0.1-0.2-0.1-0.4-0.1-0.6c0-1.3,1.3-2.4,2.9-2.4
		c1.6,0,2.9,1.1,2.9,2.4c0,0.2,0,0.4-0.1,0.6c-0.1,0.5,0.2,1.1,0.7,1.2c0.2,0.1,0.5,0,0.7,0c0.4-0.2,0.8-0.2,1.2-0.2
		c1.3,0,2.4,0.9,2.4,2c0,1.1-1.1,2-2.4,2C44.3,61.7,43.2,60.8,43.2,59.8L43.2,59.8z"/>
	<path d="M49.4,48.1c-0.9,0.2-1.6,1-2,2c-0.7,1.8-0.3,4,1,5.1c0.4,0.4,1,0.6,1.6,0.6c0.2,0,0.4,0,0.6-0.1c0.9-0.2,1.6-1,2-2
		c0.7-1.8,0.3-4-1-5.1C51,48.1,50.2,47.9,49.4,48.1L49.4,48.1z M50.8,53.1c-0.2,0.5-0.5,0.8-0.7,0.8c0,0-0.2,0-0.4-0.1
		c-0.6-0.5-0.9-1.8-0.4-2.9c0.2-0.5,0.5-0.8,0.7-0.8c0,0,0.1,0,0.1,0c0.1,0,0.2,0.1,0.3,0.2C50.9,50.6,51.2,51.9,50.8,53.1
		L50.8,53.1z"/>
	<path d="M33.4,69.5h-3.9c-0.5,0-1,0.4-1,1c0,0.5,0.4,1,1,1h3.9c0.5,0,1-0.4,1-1C34.4,69.9,34,69.5,33.4,69.5z"/>
	<circle cx="25.6" cy="70.5" r="1"/>
</g>
</svg>
