<?xml version="1.0" encoding="utf-8"?>
<!-- Generator: Adobe Illustrator 23.0.1, SVG Export Plug-In . SVG Version: 6.00 Build 0)  -->
<svg version="1.1" id="Capa_1" xmlns="http://www.w3.org/2000/svg" xmlns:xlink="http://www.w3.org/1999/xlink" x="0px" y="0px"
	 viewBox="0 0 100 100" style="enable-background:new 0 0 100 100;" xml:space="preserve">
<style type="text/css">
	.st0{fill:#363435;}
	.st1{fill:#EC3237;}
	.st2{fill:#211915;}
	.st3{fill:#F3D400;stroke:#FBEE92;stroke-width:0.7022;stroke-miterlimit:10;}
	.st4{fill:#FFFFFF;}
</style>
<g>
	<path class="st0" d="M57.6,58.7c0,0,1.2,8.4,2.9,15V60.5c0,0-0.1-0.4,0.3-0.7l2.2-1.2c0,0,0.4-0.1,0.7,0.4l3.5,8.6
		c0,0,0.3,0.4-0.1,0.7c0,0-0.4,0.2-1-0.5c-0.6-0.7-4-5.2-4-5.2l0.1,15.9c0,0,0.1,1.1-1.6,1.3c0,0-1.3,0.2-2.2-1l-7.1-6.6l-2.6,7.4
		c0,0-0.1,0.3-0.6,0.2c0,0-0.4,0.1-0.3-1L48,71c0,0,0-0.6,0.7-0.6l2,0.1c0,0,0.4-0.1,0.8,0.3l5.7,5.1c0,0-3.3-5.7-10-11.5l1.6-0.7
		c0,0,7.2,7.6,9.2,10.8l0.1-0.1c0,0-5.1-10.9-6-12.4l1.5-0.7L59,73.1l0.2,0.1c0,0-1.5-4.5-2.8-13.5L57.6,58.7z"/>
	<path class="st1" d="M50,24.8c-16.5,0-29.9,13.5-29.9,30S33.5,84.7,50,84.7s29.9-13.4,29.9-29.9S66.5,24.8,50,24.8z M50.5,77.4
		c-12.2,0-22.1-9.9-22.1-22.1s9.9-22.1,22.1-22.1s22.1,9.9,22.1,22.1S62.8,77.4,50.5,77.4z"/>
	<path class="st2" d="M53,15.3c0,0,4.8,2.8,2.9,9c0,0,0.8-1.5,4.2-2.1c0,0,1.5,2.8-0.8,6.9c0,0,0.8-0.4,1.3-0.4c0,0,1.6,3.1-0.7,7
		c0,0,1-0.4,1.2-0.4c0,0,3.5,5.9-5.1,10.3c0,0-2.5,0.4-5.4-2.4c0,0,1.3,4.3-2,8c0,0-3.5,1.3-5.7,0c0,0-1.5,3.6-3,4.4
		c0,0-2.7,2.2-5-1.2v-0.2c0,0-4.8,0.4-6.9-3.7c0,0,0.3-0.5,0.7-0.6c0,0-3.4-0.8-4.4-3.4c0,0,1.6-1.2,2.9-1.3c0,0-3.8-2.5-2.9-6.8
		c0,0,4-0.2,6.1,3.9c0,0,0.6-2.3,1.8-3.1c0,0,2.5,1.3,3,4.8l0.7-0.7c0,0,1.7,1.1,2.3,2.5l1.2-0.4c0,0-3.3-1.5-4.3-4.8l1-0.4
		c0,0-3.6-1.9-4-5c0,0,1.6-0.8,3.8-0.6h0.1c0,0-3.9-2.5-2.2-8.3c0,0,4.6,0.5,5.7,6l0.1,0.1c0,0,0.7-1.9,2.6-3.2c0,0,2.5,1.8,2.2,6
		l1-0.7c0,0,2.5,1.6,2.2,6.1l1-0.6c0,0-0.3-2,0-3.4h1.3c0,0-2.6-2.5-1.9-6.6c0,0,0.6-0.1,1.1,0c0,0-2.6-2.5-1.7-6.7
		c0,0,2.8,0.1,4,1.3C51.3,24.3,49,19.6,53,15.3z"/>
	<g>
		<path class="st3" d="M53.1,16.7c0,0-3.6,5.3,0.8,8.9C53.8,25.7,57.7,21.2,53.1,16.7z"/>
		<path class="st3" d="M48.2,24.3c0,0,0.1,6.4,5.7,6.9C53.9,31.2,54.5,25.4,48.2,24.3z"/>
		<path class="st3" d="M59.3,23.4c0,0,1.1,6.3-4.4,7.8C54.8,31.2,53.2,25.5,59.3,23.4z"/>
		<path class="st3" d="M48.9,30.7c0,0,0.1,6.4,5.7,6.9C54.6,37.7,55.2,31.8,48.9,30.7z"/>
		<path class="st3" d="M59.9,29.9c0,0,1.1,6.3-4.4,7.8C55.5,37.7,53.9,32,59.9,29.9z"/>
		<path class="st3" d="M49.3,37.2c0,0,0.1,6.4,5.7,6.9C55.1,44.2,55.7,38.3,49.3,37.2z"/>
		<path class="st3" d="M60.4,36.3c0,0,1.1,6.3-4.4,7.8C56,44.2,54.4,38.5,60.4,36.3z"/>
	</g>
	<g>
		<path class="st3" d="M34.2,27.2c0,0-1,6,4.1,7.4C38.3,34.6,39.9,29.3,34.2,27.2z"/>
		<path class="st3" d="M33,35.4c0,0,2.5,5.5,7.6,3.8C40.6,39.1,38.9,33.8,33,35.4z"/>
		<path class="st3" d="M42.3,30.3c0,0,3.4,5-0.8,8.5C41.4,38.8,37.9,34.5,42.3,30.3z"/>
		<path class="st3" d="M36.1,40.7c0,0,2.5,5.5,7.6,3.8C43.7,44.4,42,39.2,36.1,40.7z"/>
		<path class="st3" d="M45.3,35.6c0,0,3.4,5-0.8,8.5C44.5,44.1,40.9,39.8,45.3,35.6z"/>
		<path class="st3" d="M39,46.1c0,0,2.5,5.5,7.6,3.8C46.6,49.9,44.9,44.6,39,46.1z"/>
		<path class="st3" d="M48.2,41c0,0,3.4,5-0.8,8.5C47.4,49.5,43.8,45.3,48.2,41z"/>
	</g>
	<g>
		<path class="st3" d="M24.7,39.5c0,0,0.4,5.2,5.1,5.4C29.7,44.9,29.9,40.1,24.7,39.5z"/>
		<path class="st3" d="M25.4,46.9c0,0,3.3,4.1,7.2,1.5C32.6,48.4,30,44.3,25.4,46.9z"/>
		<path class="st3" d="M32,40.7c0,0,3.9,3.5,1.2,7.3C33.2,48,29.3,45.1,32,40.7z"/>
		<path class="st3" d="M29.1,50.6c0,0,3.3,4.1,7.2,1.5C36.4,52.2,33.8,48.1,29.1,50.6z"/>
		<path class="st3" d="M35.8,44.5c0,0,3.9,3.5,1.2,7.3C37,51.7,33,48.9,35.8,44.5z"/>
		<path class="st3" d="M39.5,48.8c0,0,3.9,3.5,1.2,7.3C40.7,56,36.7,53.2,39.5,48.8z"/>
	</g>
	<polygon class="st1" points="24,59.5 68.9,36.3 74.6,51.7 31.1,73.4 	"/>
	<g>
		<path class="st4" d="M29.1,66.3c0.3,0.7,0.8,0.7,1.6,0.4c0.7-0.3,0.8-0.7,0.7-1c-0.3-0.6-1.3-0.2-2-0.1c-0.9,0.1-1.7,0-2.2-1
			c-0.7-1.4,0.3-2.6,1.6-3.2c1.3-0.6,2.7-0.7,3.4,0.9L30.4,63c-0.1-0.2-0.3-0.4-0.4-0.4c-0.2-0.1-0.4,0-0.7,0.1
			c-0.4,0.2-0.7,0.5-0.5,1c0.1,0.4,0.4,0.3,1.4,0.1c1-0.1,2.2-0.2,2.8,1c0.5,1.1,0,2.5-1.9,3.4c-1.5,0.7-2.9,0.4-3.6-1L29.1,66.3z"
			/>
		<path class="st4" d="M34.2,60.2l-1.5,0.7l-0.3-1.2l1.5-0.7L34.2,60.2z M32.9,61.5l1.5-0.7l1.2,5l-1.5,0.7L32.9,61.5z"/>
		<path class="st4" d="M35.3,60.4l1.5-0.7l0.1,0.6l0,0c0.1-0.4,0.4-1,1.3-1.4c0.8-0.4,1.6-0.1,1.9,0.7c0.1,0.3,0.2,0.8,0.3,1
			l0.6,2.7L39.6,64L39,61.3c-0.1-0.2-0.1-0.4-0.2-0.6c-0.1-0.4-0.5-0.4-0.8-0.3c-0.9,0.4-0.6,1.3-0.4,2.2l0.5,2.1l-1.5,0.7
			L35.3,60.4z"/>
		<path class="st4" d="M48.1,53.9l-1.9,0.9l1.3,5.4l-1.6,0.7l-1.3-5.4l-1.9,0.9l-0.4-1.6l5.3-2.5L48.1,53.9z"/>
		<path class="st4" d="M48.7,58.2l1.2-0.6l0.3,1.3L49,59.4L48.7,58.2z"/>
		<path class="st4" d="M56.9,54.3l1.2-0.6l0.3,1.3l-1.2,0.6L56.9,54.3z"/>
		<path class="st4" d="M64.6,50.6l1.2-0.6l0.3,1.3l-1.2,0.6L64.6,50.6z"/>
		<path class="st4" d="M72.6,46.7l1.2-0.6l0.3,1.3L72.9,48L72.6,46.7z"/>
		<path class="st4" d="M51.3,50.7l1.6-0.7l4,5.7l-1.6,0.7l-0.7-1l-2.2,1l-0.1,1.4l-1.8,0.8L51.3,50.7z M52.5,55l1.4-0.7l-1.3-2.2
			l0,0L52.5,55z"/>
		<path class="st4" d="M61.8,48.5c-0.2-0.6-0.7-0.9-1.5-0.6c-1.3,0.6-1,2.2-0.5,3.2c0.4,0.8,0.9,1.3,1.9,0.9c0.7-0.3,1-1,0.8-1.7
			l1.6-0.7c0.4,1.8-0.2,3.1-2,3.9c-1,0.4-2.8,0.7-3.9-1.6c-1-2-0.5-4.2,1.6-5.3c1.6-0.7,3-0.5,3.7,1.1L61.8,48.5z"/>
		<path class="st4" d="M69.9,44.7c-0.2-0.6-0.7-0.9-1.5-0.6c-1.3,0.6-1,2.2-0.5,3.2c0.4,0.8,0.9,1.3,1.9,0.9c0.7-0.3,1-1,0.8-1.7
			l1.6-0.7c0.4,1.8-0.2,3.1-2,3.9c-1,0.4-2.8,0.7-3.9-1.6c-1-2-0.5-4.2,1.6-5.3c1.6-0.7,3-0.5,3.7,1.1L69.9,44.7z"/>
	</g>
</g>
</svg>
