<?xml version="1.0" encoding="utf-8"?>
<!-- Generator: Adobe Illustrator 23.0.1, SVG Export Plug-In . SVG Version: 6.00 Build 0)  -->
<svg version="1.1" id="Layer_1" xmlns="http://www.w3.org/2000/svg" xmlns:xlink="http://www.w3.org/1999/xlink" x="0px" y="0px"
	 viewBox="0 0 502 502" style="enable-background:new 0 0 502 502;" xml:space="preserve">
<style type="text/css">
	.st0{fill:#E9EAEF;}
	.st1{fill:#9EB1B7;}
	.st2{fill:#85C10D;}
	.st3{fill:#D2D4D8;}
	.st4{fill:#EA4756;}
	.st5{fill:#C97523;}
	.st6{fill:#A0D9F2;}
	.st7{fill:#413740;}
</style>
<g>
	<polygon class="st0" points="437.9,206.6 437.9,491.5 64.1,491.5 64.1,206.6 252.1,24.3 	"/>
	<polyline class="st1" points="346.4,106 346.4,53.4 439.9,53.4 439.9,195 	"/>
	<g>
		<rect x="268.9" y="431.8" class="st2" width="225.7" height="59.7"/>
		<rect x="7.5" y="431.8" class="st2" width="79.1" height="59.7"/>
	</g>
	<polygon class="st3" points="437.9,217.8 437.9,271 251,92.6 64.1,271 64.1,217.8 236.2,53.9 251,40.1 265.8,53.9 	"/>
	<polygon class="st4" points="251,63 38.2,266.1 8.5,241.1 236.2,24.3 251,10.5 265.8,24.3 493.5,241.1 463.8,266.1 	"/>
	<rect x="109.8" y="278" class="st5" width="123.3" height="213.5"/>
	<rect x="268.9" y="278" class="st6" width="140.4" height="123.3"/>
	<rect x="268.9" y="278" class="st5" width="140.4" height="37.5"/>
	
		<ellipse transform="matrix(0.1602 -0.9871 0.9871 0.1602 30.3571 401.2756)" class="st7" cx="251" cy="182.8" rx="34.3" ry="34.3"/>
	<path d="M261.4,278v123.3c0,4.1,3.3,7.5,7.5,7.5h140.4c4.1,0,7.5-3.3,7.5-7.5V278c0-4.1-3.3-7.5-7.5-7.5H268.9
		C264.8,270.6,261.4,273.9,261.4,278z M276.4,393.8v-70.9h125.5v70.9H276.4z M401.8,285.5V308H276.4v-22.5H401.8z"/>
	<path d="M494.5,424.3h-49.2V258.8l13.3,12.7c1.4,1.4,3.3,2.1,5.1,2.1c1.7,0,3.4-0.6,4.8-1.7l29.6-24.8c1-0.8,1.8-1.9,2.3-3.1
		c1.1-2.9,0.4-6.1-1.8-8.2l-51.3-48.9v-70.6c0-4.1-3.3-7.5-7.5-7.5l0,0c-4.1,0-7.5,3.3-7.5,7.5v56.4l-78.5-74.8v-37h78.5v20.6
		c0,4.1,3.3,7.5,7.5,7.5l0,0c4.1,0,7.5-3.3,7.5-7.5V53.4c0-4.1-3.3-7.5-7.5-7.5h-93.4c-4.1,0-7.5,3.3-7.5,7.5v30.3l-68.1-64.8
		L256.1,5c-2.9-2.7-7.3-2.7-10.1,0L231,18.9L3.3,235.7c-2.1,2-2.9,5.2-1.8,8.2c0.5,1.2,1.3,2.3,2.3,3.1l29.6,24.8
		c2.9,2.4,7.2,2.3,9.9-0.3l13.3-12.7v48.8c0,4.1,3.3,7.5,7.5,7.5l0,0c4.1,0,7.5-3.3,7.5-7.5v-63L251,73.3l179.4,171.3v179.8H268.9
		c-4.1,0-7.5,3.3-7.5,7.5V484h-20.9V278c0-4.1-3.3-7.5-7.5-7.5H109.8c-4.1,0-7.5,3.3-7.5,7.5v206H94v-52.2c0-4.1-3.3-7.5-7.5-7.5
		h-15v-81.9c0-4.1-3.3-7.5-7.5-7.5l0,0c-4.1,0-7.5,3.3-7.5,7.5v81.9H7.5c-4.1,0-7.5,3.3-7.5,7.5v59.7c0,4.1,3.3,7.5,7.5,7.5h79.1
		c0,0,0,0,0,0h23.3h123.3h35.8c0,0,0,0,0,0h225.6c4.1,0,7.5-3.3,7.5-7.5v-59.7C502,427.7,498.7,424.3,494.5,424.3z M251,55.5
		c-1.9,0-3.7,0.7-5.1,2.1L37.9,256.1l-18.3-15.3l221.6-211l9.8-9.1l9.7,9l221.7,211.1l-18.3,15.3L256.1,57.6
		C254.7,56.2,252.9,55.5,251,55.5z M14.9,439.2h64.2V484h-15v0H14.9V439.2z M117.3,484V285.5h108.4V484H117.3L117.3,484z M487.1,484
		h-49.2v0H276.4v-44.8h210.7L487.1,484L487.1,484z"/>
	<path d="M208.8,376.6h-17.9c-4.1,0-7.5,3.3-7.5,7.5c0,4.1,3.3,7.5,7.5,7.5h17.9c4.1,0,7.5-3.3,7.5-7.5
		C216.3,380,212.9,376.6,208.8,376.6z"/>
	<path d="M251,141c-23,0-41.7,18.7-41.7,41.7c0,23,18.7,41.7,41.7,41.7s41.7-18.7,41.7-41.7S274,141,251,141z M251,209.6
		c-14.8,0-26.8-12-26.8-26.8c0-14.8,12-26.8,26.8-26.8c14.8,0,26.8,12,26.8,26.8C277.8,197.6,265.8,209.6,251,209.6z"/>
</g>
</svg>
