<?xml version="1.0" encoding="utf-8"?>
<!-- Generator: Adobe Illustrator 23.0.1, SVG Export Plug-In . SVG Version: 6.00 Build 0)  -->
<svg version="1.1" id="Layer_1" xmlns="http://www.w3.org/2000/svg" xmlns:xlink="http://www.w3.org/1999/xlink" x="0px" y="0px"
	 viewBox="0 0 502 502" style="enable-background:new 0 0 502 502;" xml:space="preserve">
<style type="text/css">
	.st0{fill:#3CB7C6;}
	.st1{fill:#FFFFFF;}
	.st2{fill:#047F46;}
</style>
<rect x="442.3" y="301.2" class="st0" width="49.7" height="64.3"/>
<rect x="10" y="301.2" class="st0" width="302.5" height="64.3"/>
<polygon class="st1" points="10,29.2 10,301.2 312.5,301.2 312.5,428.8 442.3,428.8 442.3,301.2 492,301.2 492,29.2 "/>
<rect x="312.5" y="428.8" class="st0" width="129.8" height="44"/>
<g>
	<path d="M452.3,375.6H492c5.5,0,10-4.5,10-10V29.2c0-5.5-4.5-10-10-10H10c-5.5,0-10,4.5-10,10v336.4c0,5.5,4.5,10,10,10h231v26.3
		h-74.1c-5.5,0-10,4.5-10,10s4.5,10,10,10h135.6v51c0,5.5,4.5,10,10,10h129.8c5.5,0,10-4.5,10-10V375.6z M20,39.2h462v252h-29.7
		v-45.3c0-5.5-4.5-10-10-10H312.5c-5.5,0-10,4.5-10,10v45.3H20V39.2z M322.5,365.6v-64.3V256h109.8v45.3v64.3v53.2H322.5V365.6z
		 M20,311.2h282.5v44.3H20V311.2z M261,401.9v-26.3h41.5v26.3H261z M432.3,462.8H322.5v-24h109.8V462.8z M482,355.6h-29.7v-44.3H482
		V355.6z"/>
	<path d="M162.1,56.3c0-2.4-2-4.4-4.4-4.4H38.3c-2.4,0-4.4,2-4.4,4.4s2,4.4,4.4,4.4h119.4C160.1,60.7,162.1,58.8,162.1,56.3z"/>
	<path d="M175.1,60.7h6.5c2.4,0,4.4-2,4.4-4.4s-2-4.4-4.4-4.4h-6.5c-2.4,0-4.4,2-4.4,4.4C170.7,58.8,172.7,60.7,175.1,60.7z"/>
	<path d="M341.3,288.6c-2.1,0-3.8,1.7-3.8,3.8v24.4c0,2.1,1.7,3.8,3.8,3.8c2.1,0,3.8-1.7,3.8-3.8v-24.4
		C345.1,290.3,343.4,288.6,341.3,288.6z"/>
	<path d="M341.3,269.8c-2.1,0-3.8,1.7-3.8,3.8v5.6c0,2.1,1.7,3.8,3.8,3.8c2.1,0,3.8-1.7,3.8-3.8v-5.6
		C345.1,271.5,343.4,269.8,341.3,269.8z"/>
	<g>
		<path d="M315.5,108.8h-85.5c-5.3,0-9.6,4.3-9.6,9.6c0,5.3,4.3,9.6,9.6,9.6h85.5c5.3,0,9.6-4.3,9.6-9.6
			C325.1,113.1,320.8,108.8,315.5,108.8z"/>
		<path d="M202.9,95.2h-35.1c-3.1,0-5.7,2.5-5.7,5.7V136c0,3.1,2.5,5.7,5.7,5.7h35.1c3.1,0,5.7-2.5,5.7-5.7v-35.1
			C208.6,97.8,206,95.2,202.9,95.2z M197.2,106.6v23.8h-23.8v-23.8H197.2z"/>
		<path d="M202.9,146.8h-35.1c-3.1,0-5.7,2.5-5.7,5.7v35.1c0,3.1,2.5,5.7,5.7,5.7h35.1c3.1,0,5.7-2.5,5.7-5.7v-35.1
			C208.6,149.3,206,146.8,202.9,146.8z M197.2,158.1v23.8h-23.8v-23.8H197.2z"/>
		<path d="M202.9,198.3h-35.1c-3.1,0-5.7,2.5-5.7,5.7v35.1c0,3.1,2.5,5.7,5.7,5.7h35.1c3.1,0,5.7-2.5,5.7-5.7v-35.1
			C208.6,200.8,206,198.3,202.9,198.3z M197.2,209.6v23.8h-23.8v-23.8H197.2z"/>
		<path d="M315.5,160.4h-85.5c-5.3,0-9.6,4.3-9.6,9.6c0,5.3,4.3,9.6,9.6,9.6h85.5c5.3,0,9.6-4.3,9.6-9.6
			C325.1,164.7,320.8,160.4,315.5,160.4z"/>
		<path d="M315.5,211.8h-85.5c-5.3,0-9.6,4.3-9.6,9.6c0,5.3,4.3,9.6,9.6,9.6h85.5c5.3,0,9.6-4.3,9.6-9.6
			C325.1,216.2,320.8,211.8,315.5,211.8z"/>
		<path class="st2" d="M214.6,98.2l-20.9,28.6c-1.3,1.7-3.1,2.8-5.1,3.1c-2,0.3-4-0.1-5.8-1.4l-16.8-12.3c-3.5-2.5-4.2-7.4-1.7-10.8
			c2.5-3.5,7.4-4.2,10.8-1.7l10.6,7.7l16.3-22.4c2.5-3.5,7.4-4.2,10.8-1.7C216.4,89.9,217.1,94.8,214.6,98.2z"/>
	</g>
	<g>
		<path d="M410.6,332.2h-38.7c-2.4,0-4.4,2-4.4,4.4s2,4.4,4.4,4.4h38.7c2.4,0,4.4-2,4.4-4.4S413,332.2,410.6,332.2z"/>
		<path d="M359.7,326.1h-15.9c-1.4,0-2.6,1.1-2.6,2.6v15.9c0,1.4,1.1,2.6,2.6,2.6h15.9c1.4,0,2.6-1.1,2.6-2.6v-15.9
			C362.3,327.3,361.1,326.1,359.7,326.1z M357.2,331.2V342h-10.8v-10.8H357.2z"/>
		<path d="M359.7,349.4h-15.9c-1.4,0-2.6,1.1-2.6,2.6v15.9c0,1.4,1.1,2.6,2.6,2.6h15.9c1.4,0,2.6-1.1,2.6-2.6V352
			C362.3,350.6,361.1,349.4,359.7,349.4z M357.2,354.6v10.8h-10.8v-10.8H357.2z"/>
		<path d="M359.7,372.7h-15.9c-1.4,0-2.6,1.1-2.6,2.6v15.9c0,1.4,1.1,2.6,2.6,2.6h15.9c1.4,0,2.6-1.1,2.6-2.6v-15.9
			C362.3,373.8,361.1,372.7,359.7,372.7z M357.2,377.8v10.8h-10.8v-10.8H357.2z"/>
		<path d="M410.6,355.6h-38.7c-2.4,0-4.4,2-4.4,4.4c0,2.4,2,4.4,4.4,4.4h38.7c2.4,0,4.4-2,4.4-4.4C415,357.5,413,355.6,410.6,355.6z
			"/>
		<path d="M410.6,378.8h-38.7c-2.4,0-4.4,2-4.4,4.4c0,2.4,2,4.4,4.4,4.4h38.7c2.4,0,4.4-2,4.4-4.4C415,380.8,413,378.8,410.6,378.8z
			"/>
		<path class="st2" d="M365,327.5l-9.4,13c-0.6,0.8-1.4,1.3-2.3,1.4c-0.9,0.1-1.8-0.1-2.6-0.6l-7.6-5.5c-1.6-1.1-1.9-3.3-0.8-4.9
			c1.1-1.6,3.3-1.9,4.9-0.8l4.8,3.5l7.4-10.1c1.1-1.6,3.3-1.9,4.9-0.8C365.8,323.7,366.2,325.9,365,327.5z"/>
	</g>
</g>
</svg>
