<?xml version="1.0" encoding="utf-8"?>
<!-- Generator: Adobe Illustrator 23.0.1, SVG Export Plug-In . SVG Version: 6.00 Build 0)  -->
<svg version="1.1" id="Layer_1" xmlns="http://www.w3.org/2000/svg" xmlns:xlink="http://www.w3.org/1999/xlink" x="0px" y="0px"
	 viewBox="0 0 502 502" style="enable-background:new 0 0 502 502;" xml:space="preserve">
<style type="text/css">
	.st0{fill:#3CB7C6;}
	.st1{fill:#FFFFFF;}
</style>
<rect x="442.3" y="301.2" class="st0" width="49.7" height="64.3"/>
<rect x="10" y="301.2" class="st0" width="302.5" height="64.3"/>
<polygon class="st1" points="10,29.2 10,301.2 312.5,301.2 312.5,428.8 442.3,428.8 442.3,301.2 492,301.2 492,29.2 "/>
<rect x="312.5" y="428.8" class="st0" width="129.8" height="44"/>
<g>
	<path d="M452.3,375.6H492c5.5,0,10-4.5,10-10V29.2c0-5.5-4.5-10-10-10H10c-5.5,0-10,4.5-10,10v336.4c0,5.5,4.5,10,10,10h231v26.3
		h-74.1c-5.5,0-10,4.5-10,10s4.5,10,10,10h135.6v51c0,5.5,4.5,10,10,10h129.8c5.5,0,10-4.5,10-10V375.6z M20,39.2h462v252h-29.7
		v-45.3c0-5.5-4.5-10-10-10H312.5c-5.5,0-10,4.5-10,10v45.3H20V39.2z M322.5,365.6v-64.3v-45.3h109.8v45.3v64.3v53.2H322.5V365.6z
		 M20,311.2h282.5v44.3H20V311.2z M261,401.9v-26.3h41.5v26.3H261z M432.3,462.8H322.5v-24h109.8V462.8z M482,355.6h-29.7v-44.3H482
		V355.6z"/>
	<path d="M162.1,56.3c0-2.4-2-4.4-4.4-4.4H38.3c-2.4,0-4.4,2-4.4,4.4c0,2.4,2,4.4,4.4,4.4h119.4C160.1,60.7,162.1,58.8,162.1,56.3z"
		/>
	<path d="M175.1,60.7h6.5c2.4,0,4.4-2,4.4-4.4s-2-4.4-4.4-4.4h-6.5c-2.4,0-4.4,2-4.4,4.4C170.7,58.8,172.7,60.7,175.1,60.7z"/>
	<path d="M341.3,288.6c-2.1,0-3.8,1.7-3.8,3.8v24.4c0,2.1,1.7,3.8,3.8,3.8c2.1,0,3.8-1.7,3.8-3.8v-24.4
		C345.1,290.3,343.4,288.6,341.3,288.6z"/>
	<path d="M341.3,269.8c-2.1,0-3.8,1.7-3.8,3.8v5.6c0,2.1,1.7,3.8,3.8,3.8c2.1,0,3.8-1.7,3.8-3.8v-5.6
		C345.1,271.5,343.4,269.8,341.3,269.8z"/>
	<g>
		<path d="M290.8,149.5c-0.6-0.7-1.5-1.2-2.4-1.2h-77.3l-3.4-13c-0.3-1.3-1.6-2.3-2.9-2.3H189c-1.7,0-3,1.4-3,3s1.4,3,3,3h13.4
			l3.4,13c0,0,0,0,0,0l11.9,45.8c0.3,1.3,1.6,2.3,2.9,2.3h55.9c1.4,0,2.6-0.9,2.9-2.3l11.9-45.8
			C291.6,151.2,291.4,150.2,290.8,149.5z M233.8,194.1H223l-2.4-9.2h13.1V194.1z M233.8,178.8h-14.7l-2.4-9.2h17.1
			C233.8,169.6,233.8,178.8,233.8,178.8z M233.8,163.5h-18.7l-2.4-9.2h21.1V163.5z M257.4,194.1h-17.5v-9.2h17.5V194.1z
			 M257.4,178.8h-17.5v-9.2h17.5V178.8z M257.4,163.5h-17.5v-9.2h17.5V163.5z M274.2,194.1h-10.7v-9.2h13.1L274.2,194.1z
			 M278.2,178.8h-14.7v-9.2h17.1L278.2,178.8z M282.1,163.5h-18.7v-9.2h21.1L282.1,163.5z"/>
		<path d="M228.7,202.6c-6.1,0-11.1,5-11.1,11.1c0,6.1,5,11.1,11.1,11.1c6.1,0,11.1-5,11.1-11.1
			C239.8,207.6,234.9,202.6,228.7,202.6z M228.7,218.7c-2.8,0-5-2.3-5-5c0-2.8,2.3-5,5-5c2.8,0,5,2.3,5,5
			C233.8,216.5,231.5,218.7,228.7,218.7z"/>
		<path d="M268.5,202.6c-6.1,0-11.1,5-11.1,11.1c0,6.1,5,11.1,11.1,11.1c6.1,0,11.1-5,11.1-11.1
			C279.6,207.6,274.6,202.6,268.5,202.6z M268.5,218.7c-2.8,0-5-2.3-5-5c0-2.8,2.3-5,5-5c2.8,0,5,2.3,5,5
			C273.5,216.5,271.2,218.7,268.5,218.7z"/>
	</g>
	<g>
		<path d="M403.1,334.3c-0.3-0.4-0.9-0.7-1.4-0.7h-45.4l-2-7.6c-0.2-0.8-0.9-1.3-1.7-1.3h-9.3c-1,0-1.8,0.8-1.8,1.8s0.8,1.8,1.8,1.8
			h7.9l2,7.6c0,0,0,0,0,0l7,26.9c0.2,0.8,0.9,1.3,1.7,1.3h32.8c0.8,0,1.5-0.5,1.7-1.3l7-26.9C403.6,335.3,403.5,334.8,403.1,334.3z
			 M369.6,360.5h-6.3l-1.4-5.4h7.7V360.5z M369.6,351.6H361l-1.4-5.4h10C369.6,346.2,369.6,351.6,369.6,351.6z M369.6,342.6h-11
			l-1.4-5.4h12.4V342.6z M383.5,360.5h-10.3v-5.4h10.3V360.5z M383.5,351.6h-10.3v-5.4h10.3V351.6z M383.5,342.6h-10.3v-5.4h10.3
			V342.6z M393.4,360.5h-6.3v-5.4h7.7L393.4,360.5z M395.7,351.6h-8.6v-5.4h10L395.7,351.6z M398,342.6h-11v-5.4h12.4L398,342.6z"/>
		<path d="M366.7,365.5c-3.6,0-6.5,2.9-6.5,6.5c0,3.6,2.9,6.5,6.5,6.5c3.6,0,6.5-2.9,6.5-6.5C373.2,368.5,370.3,365.5,366.7,365.5z
			 M366.7,375c-1.6,0-2.9-1.3-2.9-3c0-1.6,1.3-2.9,2.9-2.9c1.6,0,2.9,1.3,2.9,2.9C369.6,373.7,368.3,375,366.7,375z"/>
		<path d="M390,365.5c-3.6,0-6.5,2.9-6.5,6.5c0,3.6,2.9,6.5,6.5,6.5c3.6,0,6.5-2.9,6.5-6.5C396.5,368.5,393.6,365.5,390,365.5z
			 M390,375c-1.6,0-2.9-1.3-2.9-3c0-1.6,1.3-2.9,2.9-2.9c1.6,0,2.9,1.3,2.9,2.9C393,373.7,391.6,375,390,375z"/>
	</g>
</g>
</svg>
