<?xml version="1.0" encoding="utf-8"?>
<!-- Generator: Adobe Illustrator 23.0.1, SVG Export Plug-In . SVG Version: 6.00 Build 0)  -->
<svg version="1.1" id="Layer_1" xmlns="http://www.w3.org/2000/svg" xmlns:xlink="http://www.w3.org/1999/xlink" x="0px" y="0px"
	 viewBox="0 0 502 502" style="enable-background:new 0 0 502 502;" xml:space="preserve">
<style type="text/css">
	.st0{fill:#3CB7C6;}
	.st1{fill:#FFFFFF;}
	.st2{fill:#047F46;}
</style>
<rect x="442.3" y="301.2" class="st0" width="49.7" height="64.3"/>
<rect x="10" y="301.2" class="st0" width="302.5" height="64.3"/>
<polygon class="st1" points="10,29.2 10,301.2 312.5,301.2 312.5,428.8 442.3,428.8 442.3,301.2 492,301.2 492,29.2 "/>
<rect x="312.5" y="428.8" class="st0" width="129.8" height="44"/>
<g>
	<path d="M452.3,375.6H492c5.5,0,10-4.5,10-10V29.2c0-5.5-4.5-10-10-10H10c-5.5,0-10,4.5-10,10v336.4c0,5.5,4.5,10,10,10h231v26.3
		h-74.1c-5.5,0-10,4.5-10,10s4.5,10,10,10h135.6v51c0,5.5,4.5,10,10,10h129.8c5.5,0,10-4.5,10-10V375.6z M20,39.2h462v252h-29.7
		v-45.3c0-5.5-4.5-10-10-10H312.5c-5.5,0-10,4.5-10,10v45.3H20V39.2z M322.5,365.6v-64.3V256h109.8v45.3v64.3v53.2H322.5V365.6z
		 M20,311.2h282.5v44.3H20V311.2z M261,401.9v-26.3h41.5v26.3H261z M432.3,462.8H322.5v-24h109.8V462.8z M482,355.6h-29.7v-44.3H482
		V355.6z"/>
	<path d="M162.1,56.3c0-2.4-2-4.4-4.4-4.4H38.3c-2.4,0-4.4,2-4.4,4.4s2,4.4,4.4,4.4h119.4C160.1,60.7,162.1,58.8,162.1,56.3z"/>
	<path d="M175.1,60.7h6.5c2.4,0,4.4-2,4.4-4.4s-2-4.4-4.4-4.4h-6.5c-2.4,0-4.4,2-4.4,4.4C170.7,58.8,172.7,60.7,175.1,60.7z"/>
	<path d="M341.3,288.6c-2.1,0-3.8,1.7-3.8,3.8v24.4c0,2.1,1.7,3.8,3.8,3.8c2.1,0,3.8-1.7,3.8-3.8v-24.4
		C345.1,290.3,343.4,288.6,341.3,288.6z"/>
	<path d="M341.3,269.8c-2.1,0-3.8,1.7-3.8,3.8v5.6c0,2.1,1.7,3.8,3.8,3.8c2.1,0,3.8-1.7,3.8-3.8v-5.6
		C345.1,271.5,343.4,269.8,341.3,269.8z"/>
	<g>
		<g>
			<path class="st2" d="M257,105.8c-25.1,0-45.5,20.4-45.5,45.5c0,31.1,40.7,76.8,42.5,78.8c1.6,1.8,4.5,1.8,6.1,0
				c1.7-1.9,42.5-47.6,42.5-78.8C302.5,126.2,282.1,105.8,257,105.8z M257,174.2c-12.6,0-22.9-10.3-22.9-22.9
				c0-12.6,10.3-22.9,22.9-22.9c12.6,0,22.9,10.3,22.9,22.9S269.6,174.2,257,174.2z"/>
		</g>
	</g>
	<g>
		<g>
			<path class="st2" d="M377.4,321.3c-10.4,0-18.9,8.5-18.9,18.9c0,12.9,16.9,31.9,17.6,32.7c0.7,0.8,1.9,0.8,2.5,0
				c0.7-0.8,17.6-19.8,17.6-32.7C396.3,329.8,387.8,321.3,377.4,321.3z M377.4,349.7c-5.2,0-9.5-4.3-9.5-9.5c0-5.2,4.3-9.5,9.5-9.5
				s9.5,4.3,9.5,9.5C386.9,345.4,382.6,349.7,377.4,349.7z"/>
		</g>
	</g>
</g>
</svg>
