<?xml version="1.0" encoding="utf-8"?>
<!-- Generator: Adobe Illustrator 23.0.1, SVG Export Plug-In . SVG Version: 6.00 Build 0)  -->
<svg version="1.1" id="Capa_1" xmlns="http://www.w3.org/2000/svg" xmlns:xlink="http://www.w3.org/1999/xlink" x="0px" y="0px"
	 viewBox="0 0 100 100" style="enable-background:new 0 0 100 100;" xml:space="preserve">
<style type="text/css">
	.st0{fill:#D8D8D8;}
	.st1{fill:#ADADAD;}
</style>
<rect class="st0" width="100" height="100"/>
<path class="st1" d="M41.1,60.7c-2.5,0-4.7-1.6-5.5-4l-0.1-0.2c-0.2-0.6-0.3-1.2-0.3-1.7V44.4l-3.8,12.6c-0.5,1.8,0.6,3.8,2.5,4.3
	l24,6.4c0.3,0.1,0.6,0.1,0.9,0.1c1.5,0,3-1,3.4-2.5l1.4-4.4H41.1z"/>
<path class="st1" d="M45.3,44.5c1.7,0,3.1-1.4,3.1-3.1s-1.4-3.1-3.1-3.1s-3.1,1.4-3.1,3.1S43.6,44.5,45.3,44.5z"/>
<path class="st1" d="M64.7,33.6H41.5c-2.1,0-3.9,1.7-3.9,3.9v17.1c0,2.1,1.7,3.9,3.9,3.9h23.3c2.1,0,3.9-1.7,3.9-3.9V37.5
	C68.6,35.3,66.9,33.6,64.7,33.6z M41.5,36.7h23.3c0.4,0,0.8,0.3,0.8,0.8v11l-4.9-5.7c-0.5-0.6-1.3-0.9-2.1-1c-0.8,0-1.6,0.4-2.1,1
	l-5.8,6.9l-1.9-1.9c-1.1-1.1-2.8-1.1-3.8,0l-4.3,4.3V37.5C40.7,37.1,41,36.7,41.5,36.7z"/>
</svg>
